#N canvas -956 108 867 199 10;
#N canvas 0 22 450 300 (subpatch) 0;
#X array \$0-magnitude 512 float 0;
#X coords 0 50 512 -1 256 100 1;
#X restore 78 31 graph;
#N canvas 475 43 490 882 lookup 0;
#X obj 60 177 f;
#X obj 90 177 + 1;
#X obj 60 129 until;
#X msg 113 138 0;
#X msg 60 49 512;
#X obj 79 390 tabread \$0-magnitude;
#X obj 112 460 >;
#X obj 79 421 t f f;
#X obj 79 494 spigot;
#X obj 151 511 f;
#X msg 430 443 0;
#X obj 60 84 t f b b;
#X obj 301 558 f;
#X msg 151 541 bang;
#N canvas 596 56 420 762 bandwidth 0;
#X obj 93 447 tabread \$0-magnitude;
#X obj 93 347 f;
#X obj 108 206 - 10;
#X obj 133 347 + 1;
#X obj 68 296 until;
#X obj 68 166 t b f;
#X msg 68 249 21;
#X obj 126 544 >;
#X obj 93 580 spigot;
#X obj 93 493 t f f;
#X msg 93 616 bang;
#X obj 93 655 f;
#X obj 123 655 + 1;
#X msg 305 549 0;
#X obj 68 132 f;
#X obj 83 26 inlet freq;
#X obj 168 26 inlet magnitude;
#X obj 278 56 t b b;
#X obj 123 712 outlet bandwidth;
#X obj 93 387 t f f;
#X obj 238 633 f;
#X obj 238 712 s \$0-derepeater;
#X obj 278 26 r \$0-band_done;
#X obj 168 527 / 20;
#X connect 0 0 9 0;
#X connect 1 0 3 0;
#X connect 1 0 19 0;
#X connect 2 0 1 1;
#X connect 3 0 1 1;
#X connect 4 0 1 0;
#X connect 5 0 6 0;
#X connect 5 1 2 0;
#X connect 6 0 4 0;
#X connect 7 0 8 1;
#X connect 8 0 10 0;
#X connect 9 0 8 0;
#X connect 9 1 7 0;
#X connect 10 0 11 0;
#X connect 10 0 20 0;
#X connect 11 0 12 0;
#X connect 12 0 11 1;
#X connect 12 0 18 0;
#X connect 13 0 11 1;
#X connect 14 0 5 0;
#X connect 15 0 14 1;
#X connect 16 0 23 0;
#X connect 17 0 14 0;
#X connect 17 1 13 0;
#X connect 19 0 0 0;
#X connect 19 1 20 1;
#X connect 20 0 21 0;
#X connect 22 0 17 0;
#X connect 23 0 7 1;
#X restore 10 735 pd bandwidth;
#X obj 60 347 t f f f;
#X obj 60 552 sel 511;
#X floatatom 301 736 10 0 0 0 - - -;
#X obj 301 598 / 512;
#X obj 301 648 * 22050;
#X obj 60 217 t f f;
#X obj 93 248 tabread \$0-derepeat;
#X obj 93 278 == 0;
#X obj 60 307 spigot;
#X obj 241 648 / 256;
#X floatatom 241 736 5 0 0 0 - - -;
#N canvas 233 561 331 177 derepeater 0;
#X obj 13 21 r \$0-derepeater;
#X obj 13 137 tabwrite \$0-derepeat;
#X obj 13 60 t b f;
#X msg 13 97 1;
#X obj 172 136 table \$0-derepeat 512;
#X obj 172 21 r \$0-reset;
#X obj 172 57 \$0;
#X msg 172 94 \; \$1-derepeat const 0;
#X connect 0 0 2 0;
#X connect 2 0 3 0;
#X connect 2 1 1 1;
#X connect 3 0 1 0;
#X connect 5 0 6 0;
#X connect 6 0 7 0;
#X restore 354 852 pd derepeater;
#X obj 60 602 s \$0-band_done;
#X obj 10 781 swap 100;
#X obj 10 811 -;
#X obj 60 10 r \$0-next_band;
#N canvas 581 305 263 458 conversion/send 0;
#X obj 91 -11 inlet;
#X obj 113 19 inlet;
#X obj 135 49 inlet;
#X obj 48 275 pack f f f f \$0;
#X obj 48 125 f;
#X obj 48 155 + 1;
#X obj 175 78 r \$0-reset;
#X msg 175 108 0;
#X msg 48 357 \; \$5-band_\$1 \$2 \$3 \$4;
#X obj 48 -41 r \$0-band_done;
#X obj 48 215 t f f;
#X obj 75 316 s \$0-osc_index;
#X obj 7 34 bng 15 250 50 0 empty empty empty 17 7 0 10 -262144 -1
-1;
#X connect 0 0 3 2;
#X connect 1 0 3 3;
#X connect 2 0 3 1;
#X connect 3 0 8 0;
#X connect 4 0 5 0;
#X connect 5 0 4 1;
#X connect 5 0 10 0;
#X connect 6 0 7 0;
#X connect 7 0 4 1;
#X connect 9 0 4 0;
#X connect 10 0 3 0;
#X connect 10 1 11 0;
#X connect 12 0 4 0;
#X restore 10 852 pd conversion/send;
#X obj 241 688 * 4;
#X connect 0 0 1 0;
#X connect 0 0 20 0;
#X connect 1 0 0 1;
#X connect 2 0 0 0;
#X connect 3 0 0 1;
#X connect 4 0 11 0;
#X connect 5 0 7 0;
#X connect 6 0 8 1;
#X connect 7 0 8 0;
#X connect 7 1 6 0;
#X connect 8 0 9 0;
#X connect 8 0 14 1;
#X connect 8 0 24 0;
#X connect 9 0 6 1;
#X connect 9 0 13 0;
#X connect 10 0 6 1;
#X connect 11 0 2 0;
#X connect 11 1 3 0;
#X connect 11 2 10 0;
#X connect 12 0 14 0;
#X connect 12 0 18 0;
#X connect 13 0 12 0;
#X connect 14 0 28 0;
#X connect 15 0 16 0;
#X connect 15 1 5 0;
#X connect 15 2 12 1;
#X connect 16 0 27 0;
#X connect 17 0 31 2;
#X connect 18 0 19 0;
#X connect 19 0 17 0;
#X connect 20 0 23 0;
#X connect 20 1 21 0;
#X connect 21 0 22 0;
#X connect 22 0 23 1;
#X connect 23 0 15 0;
#X connect 24 0 32 0;
#X connect 25 0 31 1;
#X connect 28 0 29 0;
#X connect 28 1 29 1;
#X connect 29 0 31 0;
#X connect 30 0 4 0;
#X connect 32 0 25 0;
#X restore 466 61 pd lookup;
#N canvas -455 275 364 418 filter/oscs 0;
#X obj 27 169 *~;
#X obj 157 169 *~;
#X obj 60 88 r \$0-filter_vol;
#X obj 60 153 line~;
#X msg 60 120 \$1 20;
#X msg 270 120 \$1 20;
#X obj 270 88 r \$0-oscs_vol;
#X obj 26 205 *~ 1000;
#X obj 26 235 clip~ -0.6 0.6;
#X obj 26 265 *~ 0.4;
#X obj 157 239 lop~ 15000;
#X obj 156 29 catch~ \$0_oscs;
#N canvas 85 644 528 267 \$0-all_oscs 0;
#X restore 217 326 pd \$0-all_oscs;
#X obj 270 153 line~;
#X obj 157 119 *~ 0.2;
#N canvas 218 134 864 473 create 0;
#X obj 24 321 s;
#X obj 134 60 pack f \$0;
#X obj 181 435 s pd-\$0-all_oscs;
#X msg 165 374 \; pd-\$2-OSC_\$1 vis 0;
#X msg 149 261 symbol pd-\$2-OSC_\$1;
#X obj 134 15 r \$0-osc_index;
#X obj 134 100 t l l l l b;
#X msg 337 418 clear;
#X obj 337 366 r \$0-reset;
#X msg 181 334 obj \$1 10 pd \$2-OSC_\$1;
#X obj 474 321 s;
#X obj 584 32 pack f \$0;
#X obj 631 435 s pd-\$0-all_oscs;
#X obj 584 100 t l l l l b;
#X msg 631 334 obj \$1 40 pd \$2-FILTER_\$1;
#X msg 599 261 symbol pd-\$2-FILTER_\$1;
#X msg 615 374 \; pd-\$2-FILTER_\$1 vis 0;
#X msg 474 161 obj 10 10 receive~ \$2-excitation \, obj 50 40 r \$2-band_\$1
\, obj 50 70 unpack f f f \, obj 10 130 bp~ 1 1 \, obj 10 160 *~ \,
obj 10 200 throw~ \$2-filter \, connect 0 0 3 0 \, connect 1 0 2 0
\, connect 2 2 4 1 \, connect 2 1 3 2 \, connect 2 0 3 1 \, connect
3 0 4 0 \, connect 4 0 5 0;
#X obj 420 366 loadbang;
#X msg 24 161 obj 10 10 r \$2-band_\$1 \, obj 10 40 unpack f f f \,
obj 10 80 osc~ \, obj 10 110 *~ \, obj 10 140 *~ \, obj 50 124 r~ \$2-osc_line
\, obj 10 180 throw~ \$2_oscs \, connect 0 0 1 0 \, connect 1 2 3 1
\, connect 1 0 2 0 \, connect 2 0 3 0 \, connect 3 0 4 0 \, connect
5 0 4 1 \, connect 4 0 6 0;
#X connect 1 0 6 0;
#X connect 4 0 0 1;
#X connect 5 0 1 0;
#X connect 5 0 11 0;
#X connect 6 0 19 0;
#X connect 6 1 4 0;
#X connect 6 2 3 0;
#X connect 6 3 9 0;
#X connect 7 0 2 0;
#X connect 8 0 7 0;
#X connect 9 0 2 0;
#X connect 11 0 13 0;
#X connect 13 0 17 0;
#X connect 13 1 15 0;
#X connect 13 2 16 0;
#X connect 13 3 14 0;
#X connect 14 0 12 0;
#X connect 15 0 10 1;
#X connect 17 0 10 0;
#X connect 18 0 7 0;
#X connect 19 0 0 0;
#X restore 217 306 pd create oscs/filter;
#X obj 27 29 catch~ \$0-filter;
#X obj 28 351 outlet~;
#X connect 0 0 7 0;
#X connect 1 0 10 0;
#X connect 2 0 4 0;
#X connect 3 0 0 1;
#X connect 4 0 3 0;
#X connect 5 0 13 0;
#X connect 6 0 5 0;
#X connect 7 0 8 0;
#X connect 8 0 9 0;
#X connect 9 0 17 0;
#X connect 10 0 17 0;
#X connect 11 0 14 0;
#X connect 13 0 1 1;
#X connect 14 0 1 0;
#X connect 16 0 0 0;
#X restore 466 112 pd filter/oscs;
#X obj 416 33 vsl 30 95 0 1 0 1 \$0-oscs_vol hider OSCs 0 -9 0 10 -262144
-1 -1 9400 1;
#X obj 384 33 vsl 30 95 0 1 0 1 \$0-filter_vol hider BPs 6 -9 0 10
-262144 -1 -1 9400 1;
#N canvas -434 38 325 602 excitation 0;
#X obj 30 359 *~;
#X obj 30 419 *~ 0.05;
#X obj 30 329 vline~;
#X obj 31 513 send~ \$0-excitation;
#X obj 170 449 *~;
#X obj 30 72 f;
#X obj 80 55 r \$0-duration;
#X obj 30 16 r \$0-bang;
#X msg 30 290 \$1 \, 0 \$2;
#X obj 30 250 pack f f;
#X obj 30 112 t b f;
#X obj 30 204 / 100;
#X obj 30 144 random 25;
#X obj 30 174 + 75;
#X obj 30 449 hip~ 400;
#X obj 170 513 s~ \$0-osc_line;
#X connect 0 0 1 0;
#X connect 0 0 4 1;
#X connect 0 0 4 0;
#X connect 1 0 14 0;
#X connect 2 0 0 1;
#X connect 2 0 0 0;
#X connect 4 0 15 0;
#X connect 5 0 10 0;
#X connect 6 0 5 1;
#X connect 7 0 5 0;
#X connect 8 0 2 0;
#X connect 9 0 8 0;
#X connect 10 0 12 0;
#X connect 10 1 9 1;
#X connect 11 0 9 0;
#X connect 12 0 13 0;
#X connect 13 0 11 0;
#X connect 14 0 3 0;
#X restore 466 81 pd excitation;
#X obj 446 64 vsl 15 64 2 5000 0 0 \$0-duration \$0-dyn_duration empty
0 -9 0 10 -262144 -1 -1 0 1;
#X obj 334 81 bng 50 250 50 0 \$0-bang hider HIT 17 25 0 10 -262144
-1 -1;
#X obj 28 31 tgl 50 0 \$0-record \$0-record_off RECORD 8 25 0 10 -262144
-1 -1 0 1;
#N canvas 289 22 457 908 FFT 1;
#X obj 15 138 rfft~;
#X obj 14 176 *~;
#X obj 56 176 *~;
#X obj 15 246 sqrt~;
#X obj 14 838 tabwrite~ \$0-magnitude;
#X obj 43 739 tgl 15 0 empty empty empty 0 -6 0 8 -262144 -1 -1 1 1
;
#X obj 15 202 +~;
#X obj 248 19 block~ 1024;
#X obj 15 104 *~;
#X floatatom 145 341 5 0 0 0 - - -;
#X obj 145 263 env~ 1024;
#X obj 43 770 metro 1;
#X obj 145 303 spigot;
#X obj 305 288 tgl 15 0 empty empty empty 17 7 0 10 -262144 -1 -1 0
1;
#X obj 15 286 *~ 1;
#X obj 305 212 r \$0-record;
#N canvas 879 305 221 443 analysis 0;
#X obj 23 74 sel 0;
#X obj 23 24 inlet;
#X obj 62 227 f;
#X obj 92 227 + 1;
#X obj 23 424 s \$0-next_band;
#X obj 23 177 t b b b;
#X msg -37 360 bang;
#X obj 23 343 spigot 1;
#X msg 92 326 1;
#X msg 111 326 0;
#X obj 23 104 t b b;
#X msg 77 121 0;
#X obj 23 147 del 5;
#X obj 59 24 r \$0-load_analysis;
#X obj 92 257 sel 1 21;
#X connect 0 0 10 0;
#X connect 1 0 0 0;
#X connect 2 0 3 0;
#X connect 3 0 2 1;
#X connect 3 0 14 0;
#X connect 5 0 7 0;
#X connect 5 2 2 0;
#X connect 6 0 12 0;
#X connect 7 0 6 0;
#X connect 7 0 4 0;
#X connect 8 0 7 1;
#X connect 9 0 7 1;
#X connect 10 0 12 0;
#X connect 10 1 11 0;
#X connect 11 0 2 1;
#X connect 12 0 5 0;
#X connect 13 0 10 0;
#X connect 14 0 8 0;
#X connect 14 1 9 0;
#X restore 244 754 pd analysis;
#X obj 305 326 sel 1;
#X obj 332 390 s \$0-reset;
#X obj 344 601 s \$0-record_off;
#X obj 29 60 tabreceive~ \$0-hanning;
#N canvas 0 22 185 360 hanning 0;
#X msg 139 56 0;
#X obj 43 172 osc~;
#X obj 43 94 samplerate~;
#X obj 43 215 *~ -0.5;
#X obj 43 238 +~ 0.5;
#X obj 15 41 bng 15 250 50 0 empty empty empty 0 -6 0 8 -262144 -1
-1;
#X obj 43 128 / 512;
#X obj 15 293 tabwrite~ \$0-hanning;
#X obj 57 332 table \$0-hanning 512;
#X obj 15 12 loadbang;
#X connect 0 0 1 1;
#X connect 1 0 3 0;
#X connect 2 0 6 0;
#X connect 3 0 4 0;
#X connect 4 0 7 0;
#X connect 5 0 2 0;
#X connect 5 0 0 0;
#X connect 5 0 7 0;
#X connect 6 0 1 0;
#X connect 9 0 5 0;
#X restore 269 846 pd hanning;
#X obj 14 19 inlet~;
#X obj 145 664 f;
#X obj 145 694 + 1;
#X floatatom 145 731 5 0 0 0 - - -;
#X obj 305 356 t b b;
#X msg 305 647 0;
#X obj 43 460 < 80;
#X obj 82 517 == 0;
#X obj 145 584 > 40;
#X obj 145 631 metro 1;
#X obj 43 490 t f f f;
#X obj 305 251 change;
#X obj 43 410 spigot 1;
#X obj 145 554 spigot;
#X obj 178 485 == 0;
#X obj 145 788 s \$0-dyn_duration;
#X obj 145 759 + 200;
#X obj 381 344 bng 15 250 50 0 empty empty empty 17 7 0 10 -262144
-1 -1;
#X connect 0 0 1 0;
#X connect 0 0 1 1;
#X connect 0 1 2 0;
#X connect 0 1 2 1;
#X connect 1 0 6 0;
#X connect 2 0 6 1;
#X connect 3 0 10 0;
#X connect 3 0 14 0;
#X connect 5 0 11 0;
#X connect 5 0 16 0;
#X connect 6 0 3 0;
#X connect 8 0 0 0;
#X connect 9 0 34 0;
#X connect 9 0 35 0;
#X connect 10 0 12 0;
#X connect 11 0 4 0;
#X connect 12 0 9 0;
#X connect 13 0 12 1;
#X connect 13 0 17 0;
#X connect 13 0 36 0;
#X connect 13 0 34 1;
#X connect 14 0 4 0;
#X connect 15 0 33 0;
#X connect 17 0 26 0;
#X connect 20 0 8 1;
#X connect 22 0 8 0;
#X connect 23 0 24 0;
#X connect 24 0 23 1;
#X connect 24 0 25 0;
#X connect 25 0 38 0;
#X connect 26 0 27 0;
#X connect 26 1 18 0;
#X connect 27 0 23 1;
#X connect 28 0 32 0;
#X connect 29 0 31 0;
#X connect 29 0 35 1;
#X connect 30 0 31 0;
#X connect 30 0 19 0;
#X connect 31 0 23 0;
#X connect 32 0 5 0;
#X connect 32 1 34 1;
#X connect 32 2 29 0;
#X connect 33 0 13 0;
#X connect 34 0 28 0;
#X connect 35 0 30 0;
#X connect 36 0 35 1;
#X connect 38 0 37 0;
#X connect 39 0 18 0;
#X restore 467 35 pd FFT;
#X obj 28 81 bng 50 250 50 0 \$0-save hider SAVE 12 25 0 10 -262144
-1 -1;
#N canvas 714 154 181 225 presets 0;
#N canvas 102 143 728 779 save 0;
#X obj 106 68 bng 15 250 50 0 empty empty empty 17 7 0 10 -262144 -1
-1;
#X obj 39 321 tabread \$0-magnitude;
#X msg 39 139 512;
#X obj 39 176 until;
#X obj 39 227 f;
#X obj 69 227 + 1;
#X obj 39 15 r \$0-save;
#X msg 98 157 0;
#X msg 39 493 add2 \$1;
#N canvas 0 22 401 978 container 0;
#X obj 17 9 inlet;
#X msg 17 36 msg 10 56 0.021132 0.0170869 0.0153434 0.0210501 0.0248069
0.028579 0.0358401 0.0451502 0.0490092 0.042746 0.0310934 0.0230782
0.0202884 0.0171869 0.0134197 0.017456 0.0240434 0.0255478 0.0229066
0.0163234 0.00480775 0.00838091 0.0196043 0.0297456 0.0406004 0.0484257
0.0445324 0.0241457 0.00719646 0.0339417 0.0463215 0.0426242 0.0293385
0.0158249 0.0114578 0.0205724 0.0372916 0.0498873 0.0480496 0.0322715
0.0174393 0.0203516 0.0250626 0.0259914 0.0229486 0.0161156 0.00893558
0.00599105 0.00914427 0.00948098 0.00615873 0.00248213 0.0123581 0.0252339
0.03087 0.0248236 0.0101847 0.010929 0.0276795 0.0370834 0.0361141
0.0301327 0.0303556 0.0409884 0.053747 0.0568971 0.0439954 0.0209948
0.0139036 0.0275938 0.0358073 0.0349253 0.030362 0.0376711 0.0532644
0.0636649 0.0642888 0.053832 0.0326575 0.0139337 0.00800675 0.00642986
0.0253954 0.03487 0.0379218 0.0507403 0.0625082 0.0625876 0.0634643
0.082309 0.109242 0.114196 0.0916085 0.0702764 0.0725137 0.0887833
0.114948 0.156788 0.189384 0.166756 0.098418 0.0479256 0.0126036 0.0645467
0.121709 0.233527 0.240414 0.0581149 0.578143 1.48618 3.58959 7.91854
13.0532 15.8637 14.2224 9.03549 3.47954 0.303845 0.615552 0.482011
0.438465 0.21981 0.161607 0.137193 0.073364 0.0623989 0.05999 0.0057791
0.0714909 0.10533 0.0757055 0.0220621 0.0675848 0.119069 0.133461 0.111028
0.0613158 0.0185251 0.0882156 0.111864 0.0872855 0.0492965 0.015455
0.0189278 0.0498909 0.0814028 0.113244 0.127718 0.109852 0.0705503
0.0431958 0.0439557 0.051777 0.0533608 0.0610576 0.0855396 0.0969131
0.0844627 0.0666838 0.0567819 0.0685698 0.0981364 0.110815 0.0930546
0.0557128 0.0230478 0.024564 0.0353192 0.0623033 0.103684 0.127095
0.105624 0.043109 0.0493473 0.103389 0.11847 0.0931863 0.0509369 0.0614048
0.0843093 0.0723275 0.0388155 0.0103618 0.00535454 0.0176993 0.0248944
0.0228976 0.0158819 0.0173742 0.0313633 0.0359002 0.023306 0.0153784
0.0257564 0.0208869 0.0092754 0.0143208 0.015988 0.0324107 0.0419837
0.0315113 0.0314022 0.0384449 0.0225193 0.00553388 0.0281356 0.0654673
0.0991776 0.103883 0.0939817 0.0966134 0.122381 0.15379 0.142541 0.0801895
0.0237106 0.0408046 0.0423851 0.0294822 0.00500426 0.0512349 0.086332
0.0885044 0.0599546 0.0205036 0.0141835 0.0326855 0.0404158 0.036339
0.0213559 0.00365971 0.0109931 0.0185286 0.0239454 0.0292711 0.0346971
0.0410033 0.0434121 0.0360817 0.0263605 0.0287976 0.041644 0.0593823
0.0739647 0.075996 0.060952 0.0332131 0.00809296 0.0188421 0.0225932
0.0163804 0.0181382 0.0229802 0.0171519 0.00538274 0.00540315 0.00826874
0.00595337 0.0132869 0.0301886 0.0414133 0.0428918 0.0375859 0.0274567
0.0126423 0.00810097 0.0120882 0.0107196 0.0150047 0.0205426 0.0425668
0.0525595 0.0256443 0.0497863 0.141827 0.477418 1.08293 1.65771 1.8514
1.63372 1.32014 1.17075 1.09666 0.950099 1.11102 1.22914 0.952295 1.98445
3.18567 3.24273 2.20701 0.921257 0.125212 0.109291 0.0698418 0.0344544
0.0393414 0.0371728 0.0185076 0.0347214 0.0364134 0.0248483 0.0102879
0.00382615 0.00625067 0.00444294 0.00550434 0.00415174 0.00128309 0.00904414
0.0286296 0.0436916 0.0345055 0.0312297 0.0856142 0.124653 0.121164
0.0838438 0.0412774 0.0176869 0.0150311 0.0109905 0.00220293 0.00523845
0.00738949 0.00582507 0.0035686 0.00265835 0.00676911 0.0110471 0.0118869
0.00792263 0.0014973 0.00533729 0.00777001 0.00586218 0.000708118 0.00480244
0.00750792 0.00638329 0.00293322 0.00251377 0.00448361 0.00363166 0.000701705
0.00175226 0.0021253 0.00106603 0.000409363 0.000863289 0.00104569
0.000470664 0.000872915 0.00222606 0.00307687 0.00318727 0.00271432
0.00202049 0.00166873 0.00223961 0.00287199 0.00293422 0.00266184 0.00234237
0.00206558 0.0019827 0.00221176 0.00256263 0.00245897 0.00152967 0.000348757
0.000760184 0.00107189 0.00242696 0.00419882 0.0043269 0.00187583 0.00157877
0.00312557 0.00488918 0.00710486 0.0129912 0.04026 0.0767144 0.101148
0.0989169 0.0742504 0.0461252 0.0280596 0.0160274 0.00697174 0.00284291
6.10927e-05 0.00164846 0.000679884 0.00195064 0.00300227 0.00219434
0.000977626 0.000855741 0.00124746 0.00112167 0.000963192 0.00128287
0.00132915 0.00100166 0.000568829 0.000368376 0.000401222 0.000655724
0.00109062 0.00136138 0.001274 0.0010801 0.000983784 0.000813958 0.00062668
0.000730417 0.000762133 0.000564872 0.00046773 0.000433068 0.0002655
0.000235851 0.000415927 0.000471765 0.000360931 0.000148361 0.000196172
0.000596724 0.00090784 0.000986489 0.000842401 0.000500205 5.7141e-05
0.000531576 0.000738059 0.000563458 0.000242612 0.000282535 0.000437315
0.000537199 0.00061695 0.000627134 0.000495524 0.000231601 8.79305e-05
0.00021666 0.000163302 0.000174355 0.000355466 0.000449631 0.000424974
0.000311492 0.000146718 1.79208e-05 0.000125222 0.000195713 0.000258066
0.000262754 0.000186875 0.000149851 0.000221175 0.000285586 0.00036063
0.000439195 0.000462813 0.000428112 0.000380925 0.000360702 0.000365079
0.000347224 0.000288376 0.0002359 0.000230828 0.000229845 0.000191907
0.000129883 8.07099e-05 6.49926e-05 6.57045e-05 4.7045e-05 4.20064e-05
0.000135907 0.000215826 0.000234711 0.000223521 0.000262564 0.000304633
0.000259101 0.000128054 3.74649e-05 0.000111174 0.000124313 0.000132842
0.00018598 0.000223894 0.000210064 0.000162922 0.000127024 0.000140286
0.000149005 0.000126776 0.000190488 0.000286651 0.000301219 0.000223443
0.000108441 7.67376e-05 0.000139896 0.000158736 0.000109372;
#X obj 17 1195 outlet;
#X connect 0 0 1 0;
#X connect 1 0 2 0;
#X restore 39 548 pd container;
#X msg 129 493 set;
#X obj 78 358 t b b b b;
#X msg 112 395 symbol msg;
#X obj 39 257 t f f;
#X obj 290 274 sel 511;
#X obj 455 111 f;
#X obj 485 111 + 1;
#X msg 470 71 69;
#X obj 470 15 loadbang;
#X obj 39 649 s;
#X obj 39 94 t b b b b;
#X obj 341 371 pack f f;
#X obj 341 340 \$0;
#X msg 95 426 10;
#X msg 527 54 set \$1;
#X obj 290 304 t b b b b;
#X msg 78 456 56;
#X obj 536 592 s pd-presets;
#X obj 485 181 pack f \$0;
#X msg 536 448 obj 300 100 pd \$2-PRESET_\$1;
#X msg 502 632 symbol pd-\$2-PRESET_\$1;
#X msg 519 344 \; pd-\$2-PRESET_\$1 vis 0;
#X obj 485 272 t f l l l;
#X msg 307 549 connect 0 0 2 0 \, connect 2 0 1 0;
#X msg 290 482 donecanvasdialog 2 2 1 2 2 2 2 151 17 10 10;
#X msg 341 402 obj 10 11 bng \, obj 10 1320 s as-reader;
#X connect 0 0 20 0;
#X connect 1 0 8 0;
#X connect 2 0 3 0;
#X connect 3 0 4 0;
#X connect 4 0 5 0;
#X connect 4 0 13 0;
#X connect 5 0 4 1;
#X connect 6 0 20 0;
#X connect 7 0 4 1;
#X connect 8 0 9 0;
#X connect 9 0 19 0;
#X connect 10 0 9 0;
#X connect 11 0 26 0;
#X connect 11 1 23 0;
#X connect 11 2 12 0;
#X connect 11 3 10 0;
#X connect 12 0 8 0;
#X connect 13 0 1 0;
#X connect 13 1 14 0;
#X connect 14 0 25 0;
#X connect 15 0 16 0;
#X connect 16 0 15 1;
#X connect 16 0 24 0;
#X connect 16 0 28 0;
#X connect 17 0 15 1;
#X connect 18 0 17 0;
#X connect 20 0 2 0;
#X connect 20 1 7 0;
#X connect 20 2 11 0;
#X connect 20 3 15 0;
#X connect 21 0 35 0;
#X connect 22 0 21 0;
#X connect 23 0 8 0;
#X connect 24 0 17 0;
#X connect 25 0 34 0;
#X connect 25 1 33 0;
#X connect 25 2 9 0;
#X connect 25 3 22 0;
#X connect 26 0 8 0;
#X connect 28 0 32 0;
#X connect 29 0 27 0;
#X connect 30 0 19 1;
#X connect 32 0 21 1;
#X connect 32 1 30 0;
#X connect 32 2 31 0;
#X connect 32 3 29 0;
#X connect 33 0 19 0;
#X connect 34 0 19 0;
#X connect 35 0 19 0;
#X restore 10 13 pd save;
#N canvas 172 236 308 417 load 0;
#X obj 39 358 tabwrite \$0-magnitude;
#X obj 162 305 f;
#X obj 192 305 + 1;
#X obj 39 288 t f b;
#X floatatom 195 348 5 0 0 0 - - -;
#X msg 177 272 0;
#X obj 39 185 list append;
#X obj 39 135 until;
#X obj 39 215 list split 1;
#X obj 39 94 t b l b b;
#X obj 145 111 s \$0-reset;
#X obj 173 174 t b b;
#X obj 173 215 s \$0-load_analysis;
#X obj 39 15 r as-reader;
#X connect 1 0 2 0;
#X connect 1 0 0 1;
#X connect 1 0 4 0;
#X connect 2 0 1 1;
#X connect 3 0 0 0;
#X connect 3 1 1 0;
#X connect 5 0 1 1;
#X connect 6 0 8 0;
#X connect 7 0 6 0;
#X connect 8 0 3 0;
#X connect 8 1 6 1;
#X connect 8 2 11 0;
#X connect 9 0 7 0;
#X connect 9 1 6 1;
#X connect 9 2 5 0;
#X connect 9 3 10 0;
#X connect 11 0 12 0;
#X connect 11 1 7 1;
#X connect 13 0 9 0;
#X restore 70 13 pd load;
#N canvas 0 22 450 300 Tonbecher 0;
#X obj 10 11 bng 15 250 50 0 empty empty empty 17 7 0 10 -262144 -1
-1;
#X msg 10 56 0.0793036 0.0730745 0.0555773 0.0446465 0.0395884 0.00663706
0.0844311 0.175264 0.224958 0.200063 0.104561 0.0255729 0.143582 0.226041
0.260641 0.244283 0.206658 0.209997 0.247617 0.272774 0.281302 0.288416
0.299611 0.285688 0.203081 0.0521024 0.115489 0.224857 0.269607 0.306491
0.349658 0.3609 0.351037 0.349723 0.338972 0.292915 0.212408 0.150361
0.186683 0.237266 0.248882 0.25715 0.303324 0.358068 0.373365 0.345731
0.283912 0.177732 0.0553414 0.093103 0.177571 0.236772 0.252733 0.245904
0.254117 0.325522 0.415844 0.396828 0.435599 0.642981 0.756941 1.05009
1.36299 1.09998 2.95161 7.13116 11.4423 13.8544 13.1383 9.63361 5.04593
1.3369 0.731129 1.39616 1.70284 1.592 1.02477 0.541206 0.598197 0.781847
0.913272 0.907443 0.836308 0.802038 0.804715 0.816471 0.768332 0.645318
0.479034 0.267266 0.183893 0.336967 0.420286 0.446957 0.490602 0.533804
0.524995 0.456746 0.368502 0.286026 0.198061 0.124924 0.134299 0.219526
0.323272 0.388589 0.379788 0.323118 0.30578 0.326224 0.337744 0.551245
0.946811 1.23083 1.22784 1.02009 0.889771 0.900468 0.881993 0.849254
0.859142 0.855279 0.810449 0.747115 0.667589 0.568446 0.46707 0.382926
0.309729 0.243499 0.245411 0.321788 0.379344 0.369066 0.28184 0.13333
0.092904 0.317694 0.591911 0.839557 0.956113 0.910623 0.785299 0.672691
0.579655 0.522061 0.539815 0.567389 0.537146 0.51498 0.590468 0.66264
0.61545 0.461559 0.294572 0.188241 0.138878 0.120031 0.12462 0.141774
0.155164 0.166073 0.178853 0.180122 0.16695 0.145896 0.114085 0.0809795
0.0800845 0.136901 0.210189 0.261404 0.299075 0.332752 0.360291 0.39667
0.402138 0.373215 0.423566 0.492731 0.668322 1.46865 2.92006 4.66507
6.06082 6.41781 5.46639 3.63048 1.8475 1.02098 0.817226 0.542895 0.455438
0.507082 0.531282 0.549828 0.560324 0.564507 0.54592 0.51838 0.502005
0.465884 0.394212 0.310029 0.268734 0.299525 0.326064 0.29748 0.229007
0.158003 0.103553 0.0561894 0.0300009 0.0361967 0.00940373 0.0547889
0.136095 0.215192 0.272488 0.29568 0.300745 0.313696 0.32785 0.334078
0.35291 0.391139 0.437886 0.501009 0.566664 0.585 0.53475 0.452086
0.382449 0.324085 0.263028 0.225414 0.239218 0.272159 0.281474 0.252356
0.195569 0.139024 0.112173 0.11488 0.118422 0.1035 0.0736764 0.0605253
0.0745904 0.09573 0.130444 0.165256 0.184112 0.209233 0.258187 0.293786
0.278144 0.211068 0.121502 0.0428472 0.0150487 0.0360215 0.0399721
0.0315531 0.0164984 0.0160116 0.0359866 0.0566487 0.0743657 0.0841907
0.0808193 0.0667038 0.0550639 0.0554376 0.0610218 0.0697277 0.0845595
0.100495 0.110291 0.112561 0.109704 0.100617 0.0825811 0.0707665 0.0897063
0.122692 0.168723 0.235359 0.299992 0.359092 0.448938 0.559424 0.619626
0.58427 0.472427 0.345361 0.260957 0.224497 0.188648 0.12578 0.0600208
0.057529 0.0750866 0.0735344 0.0632225 0.0486599 0.0339355 0.0282133
0.0271302 0.0235449 0.0184301 0.0144438 0.0141733 0.0188764 0.0283692
0.0386414 0.0520227 0.0705246 0.0926316 0.159649 0.293081 0.436057
0.513022 0.479625 0.35066 0.189987 0.0757362 0.0603642 0.0644994 0.0574762
0.0454755 0.0315515 0.0250526 0.0262273 0.0352288 0.0514919 0.064329
0.0669035 0.0596253 0.0479142 0.0404323 0.0403504 0.038217 0.0277343
0.0131887 0.00777853 0.00979313 0.00702511 0.00369403 0.00462381 0.00571794
0.00727911 0.00928511 0.0104915 0.0103805 0.00942877 0.00868344 0.00814868
0.00736324 0.00773799 0.0112061 0.0189684 0.0297895 0.0388141 0.0409461
0.0346974 0.0232279 0.0119707 0.00494314 0.00215392 0.000879632 0.00216392
0.00424935 0.00574712 0.00581852 0.00437558 0.00225253 0.00229976 0.00471004
0.00676049 0.00877464 0.0140482 0.0226654 0.0302407 0.0327121 0.029034
0.0215023 0.0138313 0.00866293 0.00641066 0.00585842 0.00589995 0.00618675
0.0063726 0.00621336 0.00596832 0.00590112 0.00607529 0.00669703 0.00765894
0.00833002 0.00817188 0.00714392 0.00614004 0.00614326 0.00526559 0.00337025
0.00982074 0.0179768 0.0218838 0.0193558 0.0124384 0.00630865 0.00517219
0.00688696 0.0102308 0.0125778 0.0118181 0.00855601 0.00515589 0.0034992
0.00313729 0.00347731 0.0041804 0.00459105 0.0046308 0.00510759 0.00686925
0.00898928 0.0100007 0.00933787 0.0074635 0.00525091 0.00329994 0.00184764
0.00114181 0.00109921 0.000998502 0.000675076 0.000473621 0.000509564
0.000414331 0.000373146 0.000508964 0.000464172 0.000477518 0.000934831
0.00134246 0.00160532 0.002318 0.00353055 0.00441707 0.00434879 0.00333198
0.00192411 0.000804119 0.00026082 0.000101303 0.000398601 0.000484371
0.000318714 0.000375466 0.000634347 0.000813522 0.001356 0.00247522
0.00372771 0.00455148 0.00455702 0.0037345 0.00246987 0.00136834 0.000920753
0.00080406 0.000557429 0.000324514 0.000443255 0.000606745 0.000674372
0.000862426 0.00128006 0.00163154 0.00164075 0.00128999 0.000819139
0.00051762 0.000399669 0.000326197 0.000269664 0.000210879 0.00026622
0.000411203 0.000477022 0.000387162 0.000154121 0.000169777 0.00043537
0.000617256 0.000748289 0.000852135 0.000855769 0.000693585 0.00041221
0.000179983 0.000206627 0.000256254 0.000243508 0.00020786 0.000169471
0.000125998 7.73107e-05;
#X obj 10 1280 s as-reader;
#X connect 0 0 1 0;
#X connect 1 0 2 0;
#X coords 0 0 1 1 151 17 1 10 10;
#X restore 10 48 pd Tonbecher;
#N canvas 0 22 450 300 MURPHYS 0;
#X obj 10 11 bng 15 250 50 0 empty empty empty 17 7 0 10 -262144 -1
-1;
#X msg 10 56 0.160766 0.208889 0.234755 0.170612 0.0648003 0.019102
0.0490639 0.0651914 0.0753064 0.0738842 0.069033 0.0692918 0.0764928
0.0886579 0.0878205 0.0595872 0.0217258 0.0169238 0.0266537 0.0172527
0.0068868 0.0507789 0.0995172 0.0774979 0.693524 1.68524 2.5439 2.69366
2.01328 0.973219 0.251712 0.184452 0.0859169 0.0774282 0.0921005 0.0875927
0.0860126 0.0776766 0.0797461 0.0813584 0.0737028 0.0766179 0.0924342
0.0895636 0.0908588 0.0947928 0.0290487 0.0400491 0.225477 0.371951
0.783039 4.15059 8.90723 12.463 12.4545 8.88962 4.14221 0.802047 0.36449
0.250679 0.195557 0.185595 0.150106 0.254523 0.415133 0.444023 0.331993
0.155055 0.0167592 0.109167 0.131674 0.112886 0.0870017 0.0636325 0.0358184
0.0264197 0.0537073 0.0851523 0.117994 0.133475 0.138176 0.129962 0.101131
0.0794999 0.0744988 0.060854 0.0547344 0.0456369 0.0474541 0.0574878
0.158532 0.11188 0.149477 0.116831 0.613599 0.567135 3.05656 11.6092
22.1887 28.6042 26.4782 17.351 7.31593 2.46293 3.89007 5.23824 4.92438
3.07909 1.11878 0.0717015 0.134985 0.118035 0.121825 0.0656824 0.0437719
0.0480511 0.0575399 0.0796456 0.0949342 0.0813801 0.0975429 0.143126
0.156035 0.126062 0.0753948 0.0441737 0.0462607 0.0312053 0.0145313
0.0514747 0.0702946 0.0669095 0.062749 0.0645046 0.0770182 0.144906
0.242857 0.322251 0.343675 0.292049 0.191416 0.0937964 0.0468921 0.0477568
0.11502 0.207543 0.197683 0.547928 1.29103 1.89568 1.96768 1.56745
0.72273 1.66348 5.9195 10.5353 12.7866 11.1794 6.84251 2.4906 0.117773
0.410162 0.153139 0.0390534 0.124164 0.16931 0.145558 0.17867 0.323287
0.548311 0.787263 0.909969 0.786828 0.425487 0.549066 1.20898 1.63355
1.56506 1.0716 0.47114 0.0707761 0.0658164 0.0591822 0.0492354 0.0259198
0.02635 0.0742592 0.127241 0.169076 0.17619 0.143077 0.0962558 0.0684382
0.0614363 0.0557958 0.0436417 0.0354284 0.0419545 0.0516694 0.0430178
0.0177877 0.016716 0.0260834 0.0255953 0.0355568 0.0654432 0.108188
0.0795501 0.225837 0.612742 0.920026 0.933196 0.631735 0.202183 0.204285
0.212287 0.429264 0.571295 1.31817 4.52074 8.49048 10.8944 10.0869
6.44275 2.00957 1.33711 2.58546 2.35615 1.47779 0.614429 0.127569 0.125426
0.0843748 0.0351065 0.0147813 0.0161097 0.0420624 0.191512 0.597623
1.09855 1.3832 1.25631 0.81557 0.348531 0.0921445 0.063345 0.0557567
0.0513164 0.0312043 0.016402 0.0177502 0.0497778 0.028597 0.160867
0.459474 0.73829 0.820395 0.655486 0.36387 0.123714 0.0364598 0.0369973
0.0396517 0.0300534 0.0149492 0.0231801 0.0455379 0.0688902 0.0913834
0.123018 0.174089 0.232519 0.263023 0.235876 0.157541 0.0697156 0.0144302
0.00252656 0.00585172 0.0114779 0.00889727 0.000905077 0.00693546 0.00696259
0.00858103 0.0246648 0.0361494 0.0480818 0.0904778 0.188543 0.311618
0.381393 0.329282 0.132921 0.355332 0.877202 1.26823 1.29205 0.944165
0.460901 0.113633 0.0417691 0.0248122 0.00902121 0.00374245 0.0257667
0.0544103 0.0855898 0.0957825 0.0714808 0.049732 0.0698778 0.0739761
0.0509246 0.0238165 0.0135056 0.0109522 0.00790916 0.00567621 0.00327681
0.000724082 0.00141734 0.00240641 0.00251017 0.00249934 0.00290161
0.00395159 0.00409242 0.000858002 0.00608593 0.013502 0.0186649 0.0240706
0.029142 0.0271548 0.0170745 0.0154579 0.0319465 0.0471702 0.0512319
0.0401751 0.0253079 0.0306513 0.0372731 0.0314979 0.0196622 0.0103678
0.00591194 0.00549398 0.00589664 0.00522909 0.00428648 0.00370285 0.00323848
0.00259842 0.00186829 0.00116978 0.000675962 0.000722567 0.000710093
0.000302739 0.000440807 0.000897229 0.00113314 0.00121287 0.00111176
0.000861317 0.000776318 0.00125968 0.00169533 0.0015226 0.00339398
0.00723047 0.0111277 0.0134201 0.0118796 0.00381232 0.0125599 0.0337528
0.0504839 0.0531115 0.0402731 0.0206751 0.00614814 0.00380603 0.00292149
0.00127033 0.000933537 0.00107555 0.000546215 0.000487526 0.0015222
0.00255191 0.00401488 0.00638023 0.00899665 0.010192 0.00887321 0.00564821
0.00223674 0.000406041 0.0011749 0.00127364 0.000969188 0.000557556
0.000761938 0.00268671 0.00701723 0.0124385 0.0157956 0.0145499 0.00934518
0.00493801 0.00608933 0.00709687 0.00621403 0.00421973 0.00201818 0.000406853
0.000421658 0.000717317 0.000973512 0.00121199 0.00114206 0.00066974
0.000415396 0.00204326 0.00437197 0.00592096 0.005222 0.00246586 0.00137445
0.00271842 0.00231631 0.00108252 0.000187253 0.00019444 0.00033536
0.000563805 0.00113639 0.00175493 0.00223683 0.00238212 0.0019948 0.00127586
0.000845933 0.00077258 0.000564457 0.000336652 0.000304159 0.000305019
0.000297392 0.000327301 0.000362611 0.000357231 0.000307824 0.000290483
0.000339921 0.000337676 0.000249735 0.000222904 0.000396049 0.00065935
0.000939937 0.00114147 0.00114676 0.000913723 0.00056849 0.000359514
0.000255568 0.000480767 0.0010173 0.001336 0.00119303 0.000698032 0.00025353
0.000333324 0.000380546 0.000360417 0.000379814 0.000288688 9.48137e-05
0.000253752 0.000347622 0.000298086 0.000256187 0.000250421 0.000180138
3.95117e-05 0.000130138 0.000246317 0.000280958 0.000250534 0.000221557
0.000265669 0.000327817 0.000315934 0.000226069 0.000179429 0.000227375
0.000239733 0.000200444 0.000141223 7.72797e-05 8.3089e-05 0.000143305
0.000158187 0.000120245 7.97485e-05 6.47999e-05 3.65596e-05;
#X obj 10 1320 s as-reader;
#X connect 0 0 1 0;
#X connect 1 0 2 0;
#X coords 0 0 1 1 151 17 1 10 10;
#X restore 10 68 pd MURPHYS;
#N canvas 0 22 450 300 Ikea-Pokal 0;
#X obj 10 11 bng 15 250 50 0 empty empty empty 17 7 0 10 -262144 -1
-1;
#X msg 10 56 0.0346408 0.053505 0.0726412 0.0705452 0.0547416 0.0465555
0.0492313 0.0472196 0.0367601 0.0331377 0.0517108 0.0739969 0.09093
0.10267 0.107804 0.102277 0.084168 0.057916 0.042567 0.0633556 0.0990186
0.132566 0.159856 0.184031 0.212793 0.250425 0.290198 0.317698 0.323781
0.312463 0.294466 0.274703 0.248462 0.211955 0.17474 0.155236 0.160446
0.189028 0.24191 0.30703 0.369662 0.440029 0.543164 0.671134 0.79468
0.935599 1.17597 1.52132 1.83551 1.99205 2.16718 2.99722 4.73545 6.96151
9.11832 10.6872 11.287 10.7717 9.27187 7.16312 4.98344 3.32937 2.59752
2.46749 2.37809 2.22924 2.14237 2.13154 2.0863 1.9338 1.69553 1.44578
1.25863 1.17165 1.16497 1.17289 1.12942 1.00835 0.840514 0.710643 0.704267
0.804285 0.930803 1.03403 1.09347 1.10197 1.06566 1.00628 0.951407
0.916628 0.903611 0.921681 0.994399 1.12724 1.28975 1.44784 1.59651
1.75136 1.9132 2.06625 2.233 2.50241 2.93068 3.44081 3.94722 4.61934
5.92455 8.12091 10.8976 13.6165 15.6051 16.3523 15.6469 13.638 10.7949
7.78323 5.28582 3.73834 2.96572 2.39809 1.80093 1.34132 1.1995 1.22493
1.23671 1.23686 1.25444 1.25869 1.21852 1.1414 1.03128 0.849461 0.552381
0.29859 0.721962 1.37074 1.98163 2.42897 2.62978 2.55986 2.26456 1.85124
1.45896 1.19769 1.07791 1.04582 1.09986 1.27895 1.55988 1.8563 2.08132
2.18138 2.14758 2.01494 1.84668 1.70416 1.6172 1.57857 1.56372 1.54867
1.51557 1.45442 1.364 1.25007 1.1232 0.999671 0.902699 0.85635 0.872538
0.945276 1.05807 1.19222 1.33028 1.45487 1.54358 1.56815 1.50792 1.38018
1.29764 1.51966 2.24619 3.43795 4.96463 6.6361 8.19512 9.3583 9.88709
9.65762 8.70059 7.19435 5.41459 3.66094 2.18495 1.14486 0.599761 0.442911
0.391652 0.345408 0.339564 0.387215 0.458697 0.524313 0.571693 0.603616
0.62788 0.649218 0.671045 0.696748 0.721123 0.725937 0.691768 0.612809
0.498396 0.361833 0.214551 0.115261 0.209639 0.358407 0.539936 0.854039
1.36159 2.00612 2.65619 3.15856 3.38529 3.27366 2.84799 2.21579 1.5425
1.01726 0.775224 0.722334 0.666804 0.564999 0.468812 0.431327 0.453072
0.505371 0.566118 0.61859 0.652164 0.667024 0.670532 0.668436 0.660535
0.64283 0.610705 0.560945 0.494634 0.420063 0.350891 0.296946 0.256125
0.221495 0.195562 0.188958 0.202049 0.221622 0.236234 0.24172 0.241322
0.249583 0.28653 0.351304 0.417048 0.452997 0.439955 0.376566 0.280462
0.188231 0.15592 0.193896 0.247473 0.293172 0.331348 0.366855 0.395716
0.400435 0.374636 0.397274 0.614439 0.998694 1.4369 1.82293 2.06786
2.11717 1.96486 1.65529 1.271 0.910008 0.652904 0.514433 0.432202 0.351173
0.27163 0.221158 0.209102 0.213722 0.216681 0.21409 0.208258 0.204312
0.207981 0.220279 0.236273 0.249905 0.256752 0.25384 0.24245 0.235508
0.257281 0.316789 0.393883 0.461673 0.501133 0.50335 0.468356 0.403221
0.320385 0.236046 0.16803 0.129942 0.117362 0.111602 0.103246 0.0946237
0.0900294 0.0889482 0.0879572 0.0855455 0.0825661 0.0798711 0.0771519
0.0740349 0.0710113 0.0686994 0.0669061 0.065232 0.0643407 0.0654835
0.0683736 0.070806 0.0713445 0.0725347 0.0805695 0.0985671 0.123043
0.148181 0.169004 0.182689 0.188183 0.184383 0.170314 0.147438 0.121063
0.100965 0.0983795 0.112721 0.131272 0.143298 0.143311 0.129616 0.103692
0.0706296 0.040605 0.0322112 0.0426751 0.0492162 0.0467532 0.0379699
0.02769 0.0203756 0.0176688 0.0171751 0.0166936 0.0159592 0.0149023
0.0131279 0.0106085 0.00800087 0.00654751 0.0071154 0.00867459 0.00987426
0.0101085 0.00943136 0.00860669 0.00893134 0.0108516 0.0132574 0.0148762
0.0150817 0.013862 0.0115379 0.00860125 0.00589324 0.00536235 0.00789946
0.0114459 0.0147126 0.0171648 0.0185605 0.018777 0.0178769 0.0162277
0.0143686 0.0126691 0.0111282 0.00953955 0.00782767 0.00617372 0.00482452
0.00387747 0.00330162 0.0029952 0.00276585 0.002482 0.00218023 0.00190591
0.00164125 0.00143142 0.00131433 0.00120702 0.000993942 0.000644632
0.000247632 0.000110339 0.000324091 0.000468147 0.000587507 0.000739374
0.000900549 0.000992578 0.00104134 0.00116628 0.00137702 0.00157341
0.00168728 0.00169199 0.00153507 0.00108609 0.000441661 0.00106036
0.00191995 0.00243488 0.00297411 0.00382756 0.00449631 0.00445692 0.00369097
0.00255046 0.00141549 0.000629269 0.00100102 0.00173445 0.00221735
0.00233478 0.00220375 0.00196228 0.0015798 0.00103487 0.000511535 0.000388363
0.000528146 0.000598456 0.000603447 0.000553783 0.000432379 0.000287824
0.000270704 0.000338043 0.000395066 0.000449159 0.000449884 0.000374103
0.000275889 0.000209315 0.000227 0.000327865 0.000410448 0.000421223
0.00037914 0.000345358 0.000356574 0.000392655 0.000454471 0.000554558
0.000626974 0.000587728 0.000435915 0.000256939 0.000165914 0.000201516
0.000291393 0.000369825 0.000385515 0.000333622 0.000253066 0.000185143
0.000148325 0.000132613 0.000111656 7.62835e-05 6.47991e-05 8.81325e-05
0.000111541 0.000120084 0.000107934 0.000103891 0.000119192 0.000120209
;
#X obj 10 1320 s as-reader;
#X connect 0 0 1 0;
#X connect 1 0 2 0;
#X coords 0 0 1 1 151 17 1 10 10;
#X restore 10 88 pd Ikea-Pokal;
#N canvas 0 22 450 300 Olivenglas 0;
#X obj 10 11 bng 15 250 50 0 empty empty empty 17 7 0 10 -262144 -1
-1;
#X msg 10 56 0.021132 0.0170869 0.0153434 0.0210501 0.0248069 0.028579
0.0358401 0.0451502 0.0490092 0.042746 0.0310934 0.0230782 0.0202884
0.0171869 0.0134197 0.017456 0.0240434 0.0255478 0.0229066 0.0163234
0.00480775 0.00838091 0.0196043 0.0297456 0.0406004 0.0484257 0.0445324
0.0241457 0.00719646 0.0339417 0.0463215 0.0426242 0.0293385 0.0158249
0.0114578 0.0205724 0.0372916 0.0498873 0.0480496 0.0322715 0.0174393
0.0203516 0.0250626 0.0259914 0.0229486 0.0161156 0.00893558 0.00599105
0.00914427 0.00948098 0.00615873 0.00248213 0.0123581 0.0252339 0.03087
0.0248236 0.0101847 0.010929 0.0276795 0.0370834 0.0361141 0.0301327
0.0303556 0.0409884 0.053747 0.0568971 0.0439954 0.0209948 0.0139036
0.0275938 0.0358073 0.0349253 0.030362 0.0376711 0.0532644 0.0636649
0.0642888 0.053832 0.0326575 0.0139337 0.00800675 0.00642986 0.0253954
0.03487 0.0379218 0.0507403 0.0625082 0.0625876 0.0634643 0.082309
0.109242 0.114196 0.0916085 0.0702764 0.0725137 0.0887833 0.114948
0.156788 0.189384 0.166756 0.098418 0.0479256 0.0126036 0.0645467 0.121709
0.233527 0.240414 0.0581149 0.578143 1.48618 3.58959 7.91854 13.0532
15.8637 14.2224 9.03549 3.47954 0.303845 0.615552 0.482011 0.438465
0.21981 0.161607 0.137193 0.073364 0.0623989 0.05999 0.0057791 0.0714909
0.10533 0.0757055 0.0220621 0.0675848 0.119069 0.133461 0.111028 0.0613158
0.0185251 0.0882156 0.111864 0.0872855 0.0492965 0.015455 0.0189278
0.0498909 0.0814028 0.113244 0.127718 0.109852 0.0705503 0.0431958
0.0439557 0.051777 0.0533608 0.0610576 0.0855396 0.0969131 0.0844627
0.0666838 0.0567819 0.0685698 0.0981364 0.110815 0.0930546 0.0557128
0.0230478 0.024564 0.0353192 0.0623033 0.103684 0.127095 0.105624 0.043109
0.0493473 0.103389 0.11847 0.0931863 0.0509369 0.0614048 0.0843093
0.0723275 0.0388155 0.0103618 0.00535454 0.0176993 0.0248944 0.0228976
0.0158819 0.0173742 0.0313633 0.0359002 0.023306 0.0153784 0.0257564
0.0208869 0.0092754 0.0143208 0.015988 0.0324107 0.0419837 0.0315113
0.0314022 0.0384449 0.0225193 0.00553388 0.0281356 0.0654673 0.0991776
0.103883 0.0939817 0.0966134 0.122381 0.15379 0.142541 0.0801895 0.0237106
0.0408046 0.0423851 0.0294822 0.00500426 0.0512349 0.086332 0.0885044
0.0599546 0.0205036 0.0141835 0.0326855 0.0404158 0.036339 0.0213559
0.00365971 0.0109931 0.0185286 0.0239454 0.0292711 0.0346971 0.0410033
0.0434121 0.0360817 0.0263605 0.0287976 0.041644 0.0593823 0.0739647
0.075996 0.060952 0.0332131 0.00809296 0.0188421 0.0225932 0.0163804
0.0181382 0.0229802 0.0171519 0.00538274 0.00540315 0.00826874 0.00595337
0.0132869 0.0301886 0.0414133 0.0428918 0.0375859 0.0274567 0.0126423
0.00810097 0.0120882 0.0107196 0.0150047 0.0205426 0.0425668 0.0525595
0.0256443 0.0497863 0.141827 0.477418 1.08293 1.65771 1.8514 1.63372
1.32014 1.17075 1.09666 0.950099 1.11102 1.22914 0.952295 1.98445 3.18567
3.24273 2.20701 0.921257 0.125212 0.109291 0.0698418 0.0344544 0.0393414
0.0371728 0.0185076 0.0347214 0.0364134 0.0248483 0.0102879 0.00382615
0.00625067 0.00444294 0.00550434 0.00415174 0.00128309 0.00904414 0.0286296
0.0436916 0.0345055 0.0312297 0.0856142 0.124653 0.121164 0.0838438
0.0412774 0.0176869 0.0150311 0.0109905 0.00220293 0.00523845 0.00738949
0.00582507 0.0035686 0.00265835 0.00676911 0.0110471 0.0118869 0.00792263
0.0014973 0.00533729 0.00777001 0.00586218 0.000708118 0.00480244 0.00750792
0.00638329 0.00293322 0.00251377 0.00448361 0.00363166 0.000701705
0.00175226 0.0021253 0.00106603 0.000409363 0.000863289 0.00104569
0.000470664 0.000872915 0.00222606 0.00307687 0.00318727 0.00271432
0.00202049 0.00166873 0.00223961 0.00287199 0.00293422 0.00266184 0.00234237
0.00206558 0.0019827 0.00221176 0.00256263 0.00245897 0.00152967 0.000348757
0.000760184 0.00107189 0.00242696 0.00419882 0.0043269 0.00187583 0.00157877
0.00312557 0.00488918 0.00710486 0.0129912 0.04026 0.0767144 0.101148
0.0989169 0.0742504 0.0461252 0.0280596 0.0160274 0.00697174 0.00284291
6.10927e-05 0.00164846 0.000679884 0.00195064 0.00300227 0.00219434
0.000977626 0.000855741 0.00124746 0.00112167 0.000963192 0.00128287
0.00132915 0.00100166 0.000568829 0.000368376 0.000401222 0.000655724
0.00109062 0.00136138 0.001274 0.0010801 0.000983784 0.000813958 0.00062668
0.000730417 0.000762133 0.000564872 0.00046773 0.000433068 0.0002655
0.000235851 0.000415927 0.000471765 0.000360931 0.000148361 0.000196172
0.000596724 0.00090784 0.000986489 0.000842401 0.000500205 5.7141e-05
0.000531576 0.000738059 0.000563458 0.000242612 0.000282535 0.000437315
0.000537199 0.00061695 0.000627134 0.000495524 0.000231601 8.79305e-05
0.00021666 0.000163302 0.000174355 0.000355466 0.000449631 0.000424974
0.000311492 0.000146718 1.79208e-05 0.000125222 0.000195713 0.000258066
0.000262754 0.000186875 0.000149851 0.000221175 0.000285586 0.00036063
0.000439195 0.000462813 0.000428112 0.000380925 0.000360702 0.000365079
0.000347224 0.000288376 0.0002359 0.000230828 0.000229845 0.000191907
0.000129883 8.07099e-05 6.49926e-05 6.57045e-05 4.7045e-05 4.20064e-05
0.000135907 0.000215826 0.000234711 0.000223521 0.000262564 0.000304633
0.000259101 0.000128054 3.74649e-05 0.000111174 0.000124313 0.000132842
0.00018598 0.000223894 0.000210064 0.000162922 0.000127024 0.000140286
0.000149005 0.000126776 0.000190488 0.000286651 0.000301219 0.000223443
0.000108441 7.67376e-05 0.000139896 0.000158736;
#X obj 10 1320 s as-reader;
#X connect 0 0 1 0;
#X connect 1 0 2 0;
#X coords 0 0 1 1 151 17 1 10 10;
#X restore 10 108 pd Olivenglas;
#X restore 555 18 pd presets;
#X obj 467 3 inlet~;
#X obj 466 137 outlet~;
#X obj 630 4 inlet;
#X obj 630 27 route record;
#X connect 2 0 13 0;
#X connect 12 0 9 0;
#X connect 14 0 15 0;
