#N canvas 244 22 1148 831 10;
#X declare -lib Gem;
#X obj 337 197 table cell;
#X obj 337 85 soundfiler;
#X obj 337 38 openpanel;
#X obj 337 19 bng 15 250 50 0 empty empty load 17 7 0 10 -262144 -1
-1;
#X obj 106 479 tabread~ cell;
#X obj 107 446 line~;
#X obj 148 341 f;
#X obj 190 341 f;
#X obj 369 137 s end;
#X obj 166 293 r end;
#X obj 107 383 pack f f f;
#X msg 107 338 0;
#X obj 107 293 t b b b;
#X obj 107 217 bng 15 250 50 0 empty empty analyze 17 7 0 10 -262144
-1 -1;
#X msg 107 418 \$1 \, \$2 \$3;
#X obj 335 337 timer;
#X obj 335 291 t b b;
#X floatatom 335 377 10 0 0 0 current_slice - -;
#X obj 335 522 print;
#X obj 335 270 bng 15 250 50 0 empty empty empty 17 7 0 10 -262144
-1 -1;
#X obj 428 485 t l;
#X obj 416 379 bng 15 250 50 0 empty empty empty 17 7 0 10 -262144
-1 -1;
#X obj 340 314 bng 15 250 50 0 empty empty empty 17 7 0 10 -262144
-1 -1;
#X obj 335 217 r bonk-cooked;
#X obj 335 242 unpack;
#X obj 137 534 s bonk-cooked;
#X obj 107 254 t b b;
#X obj 335 485 list prepend;
#X msg 337 164 \; cell normalize;
#X obj 105 537 bng 15 250 50 0 empty empty empty 17 7 0 10 -262144
-1 -1;
#X obj 641 694 dac~;
#X obj 367 427 f;
#X obj 335 402 t f b;
#X obj 335 460 +;
#X obj 640 529 tabread~ cell;
#X obj 641 496 line~;
#X obj 641 433 pack f f f;
#X msg 641 468 \$1 \, \$2 \$3;
#X obj 641 332 list-idx;
#X obj 706 117 list-len;
#X obj 706 144 - 1;
#X obj 641 240 t f f;
#X obj 641 311 list;
#X obj 708 392 -;
#X obj 751 331 list-idx;
#X obj 751 310 list;
#X obj 641 265 t b f;
#X obj 692 263 t b f;
#X obj 628 26 bng 15 250 50 0 empty empty cut_n_play 17 7 0 10 -262144
-1 -1;
#X obj 708 369 swap;
#X obj 641 380 * 44.1;
#X obj 751 389 * 44.1;
#X obj 675 593 line~;
#X obj 744 545 del;
#X obj 762 514 - 5;
#X msg 675 565 1 5;
#X msg 744 569 0 5;
#X obj 640 626 *~;
#X obj 589 102 t b b b;
#X obj 779 570 del 5;
#X obj 337 106 t b f;
#X msg 337 60 read -resize -maxsize 1e+07 \$1 cell;
#X obj 665 48 spigot 1;
#X obj 718 27 tgl 15 0 empty empty loop 17 7 0 10 -262144 -1 -1 0 1
;
#X floatatom 830 162 5 0 0 0 slices_detected - -;
#X msg 388 401 0;
#X obj 589 530 vsl 15 128 0 1 0 0 empty empty volume 0 -9 0 10 -262144
-1 -1 8100 1;
#X obj 640 665 *~ 0.2;
#X floatatom 816 212 5 0 0 0 current_slice_played - -;
#N canvas 0 22 858 661 cyclicurn 0;
#X msg 98 95 clear;
#X obj 50 94 t b b;
#X obj 18 11 inlet;
#X obj 74 7 inlet;
#X obj 19 125 outlet;
#N canvas 210 56 668 715 urne 0;
#X obj 218 581 tabread \$0-urn;
#X obj 148 531 tabwrite \$0-urn;
#X obj 218 460 t a a;
#X obj 148 390 - 1;
#X obj 97 254 select 0;
#X obj 148 503 tabread \$0-urn;
#X obj 359 335 outlet;
#X obj 218 609 outlet;
#X obj 286 23 inlet;
#X obj 97 26 inlet;
#X obj 286 77 f \$1;
#X obj 297 47 loadbang;
#X obj 191 74 b;
#X obj 218 437 random;
#N canvas 689 538 264 239 count-down 0;
#X obj 59 66 inlet;
#X obj 127 60 inlet;
#X obj 59 159 outlet;
#X text 123 37 count from?;
#X text 54 35 trigger;
#X obj 59 96 bang;
#X obj 85 131 - 1;
#X obj 59 131 f;
#X connect 0 0 5 0;
#X connect 1 0 7 1;
#X connect 5 0 7 0;
#X connect 6 0 7 1;
#X connect 7 0 6 0;
#X connect 7 0 2 0;
#X restore 97 221 pd count-down;
#X text 355 361 bang if urn empty;
#X text 193 631 urn selection;
#X msg 218 343 seed \$1;
#X obj 218 147 f;
#X obj 345 143 table \$0-urn \$1;
#X obj 148 362 t a b;
#X obj 97 49 route bang seed clear;
#N canvas 549 246 251 276 gate_2 0;
#X obj 68 18 inlet;
#X obj 84 65 inlet;
#X obj 68 212 outlet;
#X obj 100 191 outlet;
#X obj 68 92 f 0;
#X obj 68 118 select 0 1;
#X obj 68 41 b;
#X connect 0 0 6 0;
#X connect 1 0 4 1;
#X connect 4 0 5 0;
#X connect 5 0 2 0;
#X connect 5 1 3 0;
#X connect 6 0 4 0;
#X restore 97 178 pd gate_2;
#N canvas 0 22 450 300 init-urn-table 0;
#N canvas 0 22 450 300 count 0;
#X obj 158 193 + 1;
#X obj 122 158 until;
#X obj 122 194 f;
#X obj 122 101 inlet;
#X msg 167 157 0;
#X obj 122 120 t a b;
#X obj 122 224 outlet;
#X connect 0 0 2 1;
#X connect 1 0 2 0;
#X connect 2 0 0 0;
#X connect 2 0 6 0;
#X connect 3 0 5 0;
#X connect 4 0 2 1;
#X connect 5 0 1 0;
#X connect 5 1 4 0;
#X restore 117 197 pd count;
#X obj 117 218 t a a;
#X obj 117 249 tabwrite \$0-urn;
#X obj 147 173 s \$0-urn;
#X msg 147 148 resize \$1;
#X obj 117 82 t a a;
#X obj 117 49 inlet;
#X obj 147 128 change;
#X obj 147 105 int;
#X connect 0 0 1 0;
#X connect 1 0 2 0;
#X connect 1 1 2 1;
#X connect 4 0 3 0;
#X connect 5 0 0 0;
#X connect 5 1 8 0;
#X connect 6 0 5 0;
#X connect 7 0 4 0;
#X connect 8 0 7 0;
#X restore 344 121 pd init-urn-table;
#X obj 286 97 t b a a a;
#X obj 97 278 t b b;
#X msg 155 153 0;
#X msg 170 176 1;
#X text 325 22 size of urn;
#X text 136 25 select;
#X connect 0 0 7 0;
#X connect 2 0 0 0;
#X connect 2 1 1 1;
#X connect 3 0 5 0;
#X connect 3 0 13 1;
#X connect 4 0 25 0;
#X connect 4 1 20 0;
#X connect 5 0 1 0;
#X connect 8 0 10 0;
#X connect 9 0 21 0;
#X connect 10 0 24 0;
#X connect 11 0 10 0;
#X connect 12 0 10 0;
#X connect 13 0 2 0;
#X connect 14 0 4 0;
#X connect 17 0 13 0;
#X connect 18 0 17 0;
#X connect 20 0 3 0;
#X connect 20 1 13 0;
#X connect 21 0 22 0;
#X connect 21 1 18 0;
#X connect 21 2 12 0;
#X connect 22 0 14 0;
#X connect 22 1 6 0;
#X connect 24 0 26 0;
#X connect 24 1 14 1;
#X connect 24 2 13 1;
#X connect 24 3 23 0;
#X connect 25 0 6 0;
#X connect 25 1 27 0;
#X connect 26 0 22 1;
#X connect 27 0 22 1;
#X restore 19 57 pd urne;
#X connect 0 0 5 0;
#X connect 1 0 5 0;
#X connect 1 1 0 0;
#X connect 2 0 5 0;
#X connect 3 0 5 1;
#X connect 5 0 4 0;
#X connect 5 1 1 0;
#X restore 625 179 pd cyclicurn;
#X obj 105 511 bonk~;
#N canvas 601 176 787 610 video_cutup 0;
#X obj 18 70 gemwin;
#X msg 18 7 create \, 1;
#X msg 29 32 0 \, destroy;
#X obj 21 197 bng 15 250 50 0 empty empty empty 17 7 0 10 -262144 -1
-1;
#X obj 21 220 openpanel;
#X text 44 194 load video;
#X msg 21 244 open \$1;
#X obj 21 298 unpack f f f;
#X floatatom 114 346 5 0 0 0 - - -;
#X floatatom 74 347 5 0 0 0 - - -;
#X obj 21 381 s \$0-frames;
#X obj 279 67 gemhead;
#X obj 521 154 r end;
#X obj 409 187 /;
#X obj 282 420 pix_buffer_read \$0-speicher;
#X obj 282 449 pix_texture;
#X obj 712 524 print;
#X obj 409 282 int;
#X obj 409 228 *;
#X obj 476 201 r \$0-frames;
#X obj 409 308 change;
#X obj 282 493 rectangle 3 2;
#X floatatom 88 434 5 0 0 0 - - -;
#X obj 279 33 loadbang;
#X obj 408 255 + 0.5;
#X obj 416 32 pix_buffer \$0-speicher 800;
#X obj 409 99 receive~ position;
#X obj 409 146 snapshot~;
#X obj 280 120 t a b;
#X obj 21 269 pix_buffer_filmopen \$0-speicher acapella.mov;
#X floatatom 441 453 5 0 0 0 - - -;
#X floatatom 491 457 5 0 0 0 - - -;
#X connect 1 0 0 0;
#X connect 2 0 0 0;
#X connect 3 0 4 0;
#X connect 4 0 6 0;
#X connect 6 0 29 0;
#X connect 7 0 10 0;
#X connect 7 0 22 0;
#X connect 7 1 9 0;
#X connect 7 2 8 0;
#X connect 11 0 28 0;
#X connect 12 0 13 1;
#X connect 13 0 18 0;
#X connect 14 0 15 0;
#X connect 15 0 21 0;
#X connect 17 0 20 0;
#X connect 18 0 24 0;
#X connect 19 0 18 1;
#X connect 20 0 14 1;
#X connect 23 0 11 0;
#X connect 24 0 17 0;
#X connect 26 0 27 0;
#X connect 27 0 13 0;
#X connect 28 0 14 0;
#X connect 28 1 27 0;
#X connect 29 0 7 0;
#X connect 30 0 21 1;
#X connect 31 0 21 2;
#X restore 107 154 pd video_cutup;
#X text 839 366 slice_zeitpunkt wird ausgegeben in millisekunden;
#X obj 879 389 s \$0-slicetime;
#X obj 814 514 send~ position;
#X obj 259 603 notein;
#X floatatom 298 637 5 0 0 0 - - -;
#X floatatom 275 661 5 0 0 0 - - -;
#X floatatom 253 684 5 0 0 0 - - -;
#X obj 417 707 - 47;
#X floatatom 426 754 5 0 0 0 - - -;
#X obj 283 734 stripnote;
#X floatatom 321 771 5 0 0 0 - - -;
#X floatatom 268 768 5 0 0 0 - - -;
#X obj 162 741 list append;
#X obj 799 290 + 1;
#X obj 208 317 / 44.1;
#X connect 1 0 60 0;
#X connect 2 0 61 0;
#X connect 3 0 2 0;
#X connect 4 0 70 0;
#X connect 5 0 4 0;
#X connect 6 0 10 1;
#X connect 7 0 10 2;
#X connect 9 0 6 1;
#X connect 9 0 86 0;
#X connect 10 0 14 0;
#X connect 11 0 10 0;
#X connect 12 0 11 0;
#X connect 12 1 6 0;
#X connect 12 2 7 0;
#X connect 13 0 26 0;
#X connect 14 0 5 0;
#X connect 15 0 17 0;
#X connect 16 0 15 0;
#X connect 16 1 15 1;
#X connect 17 0 32 0;
#X connect 19 0 16 0;
#X connect 20 0 27 1;
#X connect 21 0 27 1;
#X connect 21 0 65 0;
#X connect 22 0 15 0;
#X connect 22 0 21 0;
#X connect 23 0 24 0;
#X connect 24 0 19 0;
#X connect 26 0 12 0;
#X connect 26 1 22 0;
#X connect 27 0 18 0;
#X connect 27 0 20 0;
#X connect 27 0 39 0;
#X connect 27 0 45 1;
#X connect 27 0 42 1;
#X connect 31 0 33 1;
#X connect 32 0 33 0;
#X connect 32 1 31 0;
#X connect 33 0 31 1;
#X connect 33 0 27 0;
#X connect 34 0 57 0;
#X connect 35 0 34 0;
#X connect 35 0 74 0;
#X connect 36 0 37 0;
#X connect 37 0 35 0;
#X connect 38 0 49 0;
#X connect 38 0 50 0;
#X connect 38 0 73 0;
#X connect 39 0 40 0;
#X connect 39 0 64 0;
#X connect 40 0 69 1;
#X connect 41 0 46 0;
#X connect 41 1 47 0;
#X connect 42 0 38 0;
#X connect 43 0 36 2;
#X connect 43 0 54 0;
#X connect 44 0 49 1;
#X connect 44 0 51 0;
#X connect 45 0 44 0;
#X connect 46 0 42 0;
#X connect 46 1 38 1;
#X connect 47 0 45 0;
#X connect 47 1 85 0;
#X connect 49 0 43 0;
#X connect 49 1 43 1;
#X connect 50 0 36 0;
#X connect 51 0 36 1;
#X connect 52 0 57 1;
#X connect 53 0 56 0;
#X connect 53 0 59 0;
#X connect 54 0 53 1;
#X connect 55 0 52 0;
#X connect 56 0 52 0;
#X connect 57 0 67 0;
#X connect 58 0 53 0;
#X connect 58 1 69 0;
#X connect 58 2 55 0;
#X connect 59 0 62 0;
#X connect 60 0 28 0;
#X connect 60 1 8 0;
#X connect 61 0 1 0;
#X connect 62 0 48 0;
#X connect 63 0 62 1;
#X connect 65 0 31 1;
#X connect 66 0 67 1;
#X connect 67 0 30 0;
#X connect 67 0 30 1;
#X connect 69 0 68 0;
#X connect 70 0 29 0;
#X connect 70 1 25 0;
#X connect 75 0 78 0;
#X connect 75 1 77 0;
#X connect 75 2 76 0;
#X connect 77 0 84 1;
#X connect 78 0 84 0;
#X connect 79 0 80 0;
#X connect 80 0 41 0;
#X connect 80 0 58 0;
#X connect 81 0 83 0;
#X connect 81 1 82 0;
#X connect 83 0 79 0;
#X connect 84 0 81 0;
#X connect 85 0 44 1;
#X connect 86 0 7 1;
