#N canvas 402 65 363 796 10;
#X obj 27 591 line~;
#X msg 27 561 \$1 20;
#X obj 11 628 *~;
#X obj 71 397 *~;
#X obj 86 360 r \$0-feedback;
#X obj -58 128 inlet~;
#X obj 10 264 r \$0-delay_time;
#X obj 13 158 catch~ \$0-delay;
#X obj 70 433 throw~ \$0-delay;
#X obj 10 321 delread~ \$0-delay;
#X obj -59 702 outlet~;
#X obj -59 628 *~;
#X obj -43 591 line~;
#X msg -43 561 \$1 20;
#X obj -43 513 swap 1;
#X obj -43 533 -;
#X obj -43 426 r \$0-mix;
#X obj 12 -42 inlet;
#X obj 12 111 s \$0-delay_time;
#X obj 112 -42 inlet;
#X obj 112 111 s \$0-feedback;
#X obj 202 -42 inlet;
#X obj 202 111 s \$0-mix;
#N canvas 114 133 280 257 loadbang 0;
#X obj 26 21 loadbang;
#X obj 26 71 \$1;
#X obj 106 71 \$2;
#X obj 186 71 \$3;
#X obj 26 111 sel 0;
#X obj 106 111 sel 0;
#X obj 186 111 sel 0;
#X msg 106 155 0.5;
#X msg 186 155 0.5;
#X obj 26 211 outlet;
#X obj 106 211 outlet;
#X obj 186 211 outlet;
#X msg 26 155 250;
#X connect 0 0 1 0;
#X connect 0 0 2 0;
#X connect 0 0 3 0;
#X connect 1 0 4 0;
#X connect 2 0 5 0;
#X connect 3 0 6 0;
#X connect 4 0 12 0;
#X connect 4 1 9 0;
#X connect 5 0 7 0;
#X connect 5 1 10 0;
#X connect 6 0 8 0;
#X connect 6 1 11 0;
#X connect 7 0 10 0;
#X connect 8 0 11 0;
#X connect 12 0 9 0;
#X restore 123 40 pd loadbang;
#X obj 12 216 delwrite~ \$0-delay 10000;
#X connect 0 0 2 1;
#X connect 1 0 0 0;
#X connect 2 0 10 0;
#X connect 3 0 8 0;
#X connect 4 0 3 1;
#X connect 5 0 11 0;
#X connect 5 0 24 0;
#X connect 6 0 9 0;
#X connect 7 0 24 0;
#X connect 9 0 3 0;
#X connect 9 0 2 0;
#X connect 11 0 10 0;
#X connect 12 0 11 1;
#X connect 13 0 12 0;
#X connect 14 0 15 0;
#X connect 14 1 15 1;
#X connect 15 0 13 0;
#X connect 16 0 14 0;
#X connect 16 0 1 0;
#X connect 17 0 18 0;
#X connect 19 0 20 0;
#X connect 21 0 22 0;
#X connect 23 0 18 0;
#X connect 23 1 20 0;
#X connect 23 2 22 0;
