#N canvas 170 180 450 300 12;
#X obj 110 30 -~;
#X obj 120 -19 wrap~;
#X obj 110 -62 *~;
#X obj 110 63 /~;
#X obj 110 131 outlet~;
#X obj 110 -125 inlet~;
#X obj 193 -125 inlet;
#X connect 0 0 3 0;
#X connect 1 0 0 1;
#X connect 2 0 1 0;
#X connect 2 0 0 0;
#X connect 3 0 4 0;
#X connect 5 0 2 0;
#X connect 6 0 2 1;
#X connect 6 0 3 1;
