#N canvas -511 209 473 511 10;
#X obj 21 417 *~;
#X obj 22 29 inlet~;
#X obj 21 443 outlet~;
#X obj 84 419 *~;
#X obj 80 29 inlet~;
#X obj 84 445 outlet~;
#X obj 235 29 inlet;
#X obj 122 385 line~;
#X obj 123 95 env~;
#X msg 123 360 \$1 20;
#X obj 235 92 * 100;
#X msg 124 208 1;
#X obj 122 335 change;
#X obj 216 174 -;
#X obj 216 199 / 100;
#X obj 216 225 - 1;
#X obj 216 250 abs;
#X floatatom 149 159 5 0 0 0 - - -;
#X obj 123 119 moses;
#X floatatom 168 99 5 0 0 0 - - -;
#X floatatom 260 122 5 0 0 0 - - -;
#X connect 0 0 2 0;
#X connect 1 0 0 0;
#X connect 1 0 8 0;
#X connect 3 0 5 0;
#X connect 4 0 3 0;
#X connect 4 0 8 0;
#X connect 6 0 10 0;
#X connect 7 0 3 1;
#X connect 7 0 0 1;
#X connect 8 0 18 0;
#X connect 8 0 19 0;
#X connect 9 0 7 0;
#X connect 10 0 13 1;
#X connect 10 0 18 1;
#X connect 10 0 20 0;
#X connect 11 0 12 0;
#X connect 12 0 9 0;
#X connect 13 0 14 0;
#X connect 14 0 15 0;
#X connect 15 0 16 0;
#X connect 16 0 12 0;
#X connect 18 0 11 0;
#X connect 18 1 13 0;
#X connect 18 1 17 0;
