#N canvas -627 289 466 395 10;
#X obj 51 205 bl_limiter;
#X obj 52 275 dac~;
#X obj 51 43 noise~;
#X obj 50 136 *~;
#X obj 70 111 line~;
#X obj 192 114 hsl 128 15 0 127 0 0 empty empty empty -2 -8 0 10 -262144
-1 -1 0 1;
#X obj 193 137 hsl 128 15 0 1 0 0 empty empty empty -2 -8 0 10 -262144
-1 -1 0 1;
#X obj 70 88 / 127;
#X obj 234 241 zexy/limiter~;
#X connect 0 0 1 0;
#X connect 0 1 1 1;
#X connect 2 0 3 0;
#X connect 3 0 0 0;
#X connect 3 0 0 1;
#X connect 4 0 3 1;
#X connect 5 0 7 0;
#X connect 6 0 0 2;
#X connect 7 0 4 0;
