#N canvas 192 90 617 758 10;
#X obj 31 512 *~;
#X obj 109 177 sel 0;
#X msg 109 244 1;
#X obj 198 364 f;
#X msg 198 244 bang;
#X obj 198 308 del;
#N canvas 611 488 447 453 knee 1;
#X obj 7 12 inlet;
#X obj 7 279 outlet;
#X obj 161 12 inlet;
#X obj 7 185 pack;
#X obj 161 185 pack;
#X msg 161 212 \$1 \$2;
#X msg 7 212 \$1 \$2;
#X obj 28 131 * 0;
#X obj 28 158 f;
#X obj 182 131 * 0;
#X msg 224 94 1;
#X msg 254 94 0.5;
#X msg 284 94 0;
#X obj 182 158 f;
#X obj 224 69 bng 15 250 50 0 empty soft empty 17 7 0 10 -262144 -1
-1;
#X obj 254 69 bng 15 250 50 0 empty middle empty 17 7 0 10 -262144
-1 -1;
#X obj 284 69 bng 15 250 50 0 empty hard empty 17 7 0 10 -262144 -1
-1;
#X msg 70 94 1;
#X msg 100 94 0.5;
#X msg 130 94 0;
#X obj 70 69 bng 15 250 50 0 empty soft empty 17 7 0 10 -262144 -1
-1;
#X obj 100 69 bng 15 250 50 0 empty middle empty 17 7 0 10 -262144
-1 -1;
#X obj 130 69 bng 15 250 50 0 empty hard empty 17 7 0 10 -262144 -1
-1;
#X obj 254 13 inlet;
#X obj 253 38 route attack release;
#X connect 0 0 3 0;
#X connect 2 0 4 0;
#X connect 3 0 6 0;
#X connect 4 0 5 0;
#X connect 5 0 1 0;
#X connect 6 0 1 0;
#X connect 7 0 8 0;
#X connect 8 0 3 1;
#X connect 9 0 13 0;
#X connect 10 0 9 1;
#X connect 11 0 9 1;
#X connect 12 0 9 1;
#X connect 13 0 4 1;
#X connect 14 0 10 0;
#X connect 15 0 11 0;
#X connect 16 0 12 0;
#X connect 17 0 7 1;
#X connect 18 0 7 1;
#X connect 19 0 7 1;
#X connect 20 0 17 0;
#X connect 21 0 18 0;
#X connect 22 0 19 0;
#X connect 23 0 24 0;
#X connect 24 0 9 0;
#X connect 24 1 7 0;
#X restore 109 421 pd knee;
#X obj 109 448 line~;
#X obj 109 43 - 100;
#X obj 109 16 env~ 32;
#X obj 109 308 pipe;
#X obj 109 150 change;
#X obj 109 480 *~;
#X obj 109 123 >;
#X obj 30 -58 inlet~;
#X obj 159 -55 inlet;
#X obj 159 -20 route input threshold attack release ratio;
#X msg 263 368 attack \$1;
#X msg 334 375 release \$1;
#X obj 31 554 outlet~;
#N canvas 577 101 656 560 delaying 0;
#X obj 94 73 inlet~;
#X obj 92 114 delwrite~ \$0-r 100;
#X obj 84 484 outlet~;
#X obj 85 282 samplerate~;
#X msg 85 314 1000 \$1;
#X obj 85 341 /;
#X msg 93 256 bang;
#X obj 85 235 loadbang;
#X obj 85 449 delread~ \$0-r 12;
#X obj 85 366 * 32;
#X connect 0 0 1 0;
#X connect 3 0 4 0;
#X connect 4 0 5 0;
#X connect 5 0 9 0;
#X connect 6 0 3 0;
#X connect 7 0 3 0;
#X connect 8 0 2 0;
#X connect 9 0 8 0;
#X restore 29 81 pd delaying;
#X connect 0 0 19 0;
#X connect 1 0 2 0;
#X connect 1 1 4 0;
#X connect 2 0 10 0;
#X connect 3 0 6 1;
#X connect 4 0 5 0;
#X connect 5 0 3 0;
#X connect 6 0 7 0;
#X connect 7 0 12 0;
#X connect 7 0 12 1;
#X connect 8 0 13 0;
#X connect 9 0 8 0;
#X connect 10 0 6 0;
#X connect 11 0 1 0;
#X connect 12 0 0 1;
#X connect 13 0 11 0;
#X connect 14 0 9 0;
#X connect 14 0 20 0;
#X connect 15 0 16 0;
#X connect 16 1 13 1;
#X connect 16 2 5 1;
#X connect 16 2 17 0;
#X connect 16 3 10 1;
#X connect 16 3 18 0;
#X connect 16 4 3 1;
#X connect 17 0 6 2;
#X connect 18 0 6 2;
#X connect 20 0 0 0;
#X coords 0 758 1 757 85 60 0;
