#N canvas 641 707 236 108 10;
#X declare -lib iemlib;
#X obj 193 76 bng 17 250 50 0 reset hider empty 17 7 0 10 -262144 -1
-1;
#N canvas 14 68 1202 515 loops 1;
#X obj 50 150 loop 1;
#X obj 92 150 loop 2;
#X obj 135 150 loop 3;
#X obj 180 150 loop 4;
#X obj 225 150 loop 5;
#X obj 270 150 loop 6;
#X obj 55 46 tgl 20 0 metronome hider METRONOME 24 10 0 10 -262144
-1 -1 1 1;
#X restore 10 56 pd loops;
#N canvas 914 392 221 439 controller-input 0;
#X obj 22 20 notein;
#X obj 22 60 pack;
#X obj 22 96 t l l;
#X obj 49 131 unpack;
#X obj 131 148 != 0;
#X obj 49 191 spigot;
#X obj 49 298 s current_pedal;
#X obj 22 341 s current_note;
#X obj 10 381 cnv 15 140 40 empty empty empty 20 12 0 14 -191407 -66577
0;
#N canvas 493 236 362 641 interpretation 0;
#X obj -23 527 cnv 15 155 40 empty empty empty 20 12 0 14 -191407 -66577
0;
#N canvas 180 108 253 777 timer 0;
#X obj 38 51 != 0;
#X obj 38 136 timer;
#X obj 38 86 sel 1 0;
#X obj 38 21 inlet;
#X obj 69 716 outlet clear;
#X obj 38 686 outlet rec/play/stop;
#X obj 38 276 +;
#X obj 38 166 t f f;
#X obj 38 236 > 500;
#X obj 88 236 > 1500;
#N canvas 758 242 315 556 double-short 0;
#X obj 90 83 tgl 15 0 empty empty empty 17 7 0 10 -262144 -1 -1 0 1
;
#X obj 117 225 metro;
#X msg 117 195 1;
#X obj 37 132 t b b;
#X msg 64 195 0;
#X obj 90 115 sel 0;
#X obj 117 255 f;
#X obj 87 255 + 1;
#X obj 117 145 t b b;
#X msg 197 195 0;
#X obj 90 17 inlet;
#X obj 87 402 sel 1;
#X obj 87 342 change;
#X obj 87 312 > 500;
#X obj 37 272 f;
#X obj 110 451 s zero-state;
#X obj 175 33 r zero-state;
#X obj 37 312 > 500;
#X obj 37 402 sel 0;
#X msg 175 66 set 0;
#X obj 212 272 <= 2999;
#X obj 212 302 change;
#X obj 87 491 outlet double;
#X obj 37 521 outlet short;
#X connect 0 0 5 0;
#X connect 1 0 6 0;
#X connect 2 0 1 0;
#X connect 3 0 14 0;
#X connect 3 1 4 0;
#X connect 4 0 1 0;
#X connect 5 0 3 0;
#X connect 5 1 8 0;
#X connect 6 0 7 0;
#X connect 6 0 20 0;
#X connect 7 0 6 1;
#X connect 7 0 13 0;
#X connect 7 0 14 1;
#X connect 8 0 2 0;
#X connect 8 1 9 0;
#X connect 9 0 6 1;
#X connect 10 0 0 0;
#X connect 11 0 15 0;
#X connect 11 0 23 0;
#X connect 12 0 11 0;
#X connect 13 0 12 0;
#X connect 14 0 17 0;
#X connect 16 0 19 0;
#X connect 17 0 18 0;
#X connect 18 0 22 0;
#X connect 19 0 0 0;
#X connect 20 0 21 0;
#X connect 21 0 1 0;
#X restore 38 374 pd double-short;
#X obj 38 326 sel 0 1 2;
#X msg 55 435 1;
#X msg 72 455 2;
#X msg 38 415 0;
#X msg 125 475 3;
#X text 161 414 short;
#X text 161 434 med;
#X text 161 454 long;
#X text 161 474 double;
#X obj 38 616 sel 0 1 2 3;
#X obj 85 746 s double-short;
#X connect 0 0 2 0;
#X connect 1 0 7 0;
#X connect 2 0 1 0;
#X connect 2 1 1 1;
#X connect 3 0 0 0;
#X connect 6 0 11 0;
#X connect 7 0 8 0;
#X connect 7 1 9 0;
#X connect 8 0 6 0;
#X connect 9 0 6 1;
#X connect 10 0 14 0;
#X connect 10 1 15 0;
#X connect 11 0 10 0;
#X connect 11 1 12 0;
#X connect 11 2 13 0;
#X connect 12 0 20 0;
#X connect 13 0 20 0;
#X connect 14 0 20 0;
#X connect 15 0 20 0;
#X connect 20 0 5 0;
#X connect 20 1 5 0;
#X connect 20 2 4 0;
#X connect 20 3 21 0;
#X restore -42 107 pd timer;
#X msg -42 290 1;
#X msg 95 227 0;
#X msg 194 -31 \$2 \$1;
#X obj 194 0 unpack;
#X obj -15 363 f;
#X obj 227 248 t f f;
#X obj -42 147 t b b;
#X obj -15 423 t f f;
#N canvas 152 154 1009 674 create-send-message 0;
#X obj -36 101 sel 0 1;
#X obj -36 171 f;
#X obj 194 171 f;
#X obj 209 51 inlet current-note;
#X obj -36 51 inlet current-state;
#X obj 419 171 f;
#X obj 419 51 inlet clear-current-note;
#X obj -36 15 declare -lib iemlib;
#X obj -36 603 s record;
#X obj 194 603 s play/stop;
#X obj 419 603 s clear;
#X obj -36 465 t f f;
#X obj 194 211 t b f;
#X msg 194 279 addcomma;
#X msg 194 395;
#X obj 111 278 r grid-bang;
#X obj 111 308 t b b;
#X msg 111 378 set;
#X msg 221 249 add2 \$1;
#X obj 419 211 t b f;
#X msg 419 279 addcomma;
#X msg 419 395;
#X obj 506 278 r grid-bang;
#X obj 506 308 t b b;
#X msg 506 378 set;
#X msg 446 249 add2 \$1;
#X obj 549 361 r reset;
#X obj 239 361 r reset;
#X obj -36 211 t b f;
#X msg -36 279 addcomma;
#X msg -36 395;
#X obj -119 278 r grid-bang;
#X obj -119 308 t b b;
#X msg -119 378 set;
#X msg -9 249 add2 \$1;
#X obj -1 361 r reset;
#N canvas 17 52 317 361 creation-or-not 0;
#X obj 11 229 s create-object;
#X obj -8 4 inlet;
#X obj -8 64 t f f f;
#X obj -8 305 s creation-or-not;
#X msg -8 269 \$1 1;
#X obj 115 305 table creation-or-not 100;
#X obj 31 104 tabread creation-or-not;
#X obj 11 178 spigot;
#X obj 31 134 == 0;
#X connect 1 0 2 0;
#X connect 2 0 4 0;
#X connect 2 1 7 0;
#X connect 2 2 6 0;
#X connect 4 0 3 0;
#X connect 6 0 8 0;
#X connect 7 0 0 0;
#X connect 8 0 7 1;
#X restore 24 482 pd creation-or-not;
#X obj 29 603 print -;
#X obj 479 604 print -;
#X msg 29 531 \$1 record;
#X msg 479 532 \$1 clear;
#X obj 739 51 r double-short;
#X obj 739 171 f;
#X obj 658 511 pack;
#X obj 631 268 ctlin;
#X obj 631 308 / 127;
#X msg 658 604 \; volume_\$2 \$1;
#X obj 754 112 r current_pedal;
#X obj 739 201 t b f;
#X obj 631 408 *;
#X obj 631 438 sel 0;
#X connect 0 0 1 0;
#X connect 0 1 2 0;
#X connect 1 0 28 0;
#X connect 2 0 12 0;
#X connect 3 0 1 1;
#X connect 3 0 2 1;
#X connect 3 0 5 1;
#X connect 4 0 0 0;
#X connect 5 0 19 0;
#X connect 6 0 5 0;
#X connect 11 0 8 0;
#X connect 11 0 39 0;
#X connect 11 1 36 0;
#X connect 12 0 13 0;
#X connect 12 1 18 0;
#X connect 13 0 14 0;
#X connect 14 0 9 0;
#X connect 15 0 16 0;
#X connect 16 0 17 0;
#X connect 16 1 14 0;
#X connect 17 0 14 0;
#X connect 18 0 14 0;
#X connect 19 0 20 0;
#X connect 19 1 25 0;
#X connect 20 0 21 0;
#X connect 21 0 10 0;
#X connect 21 0 40 0;
#X connect 22 0 23 0;
#X connect 23 0 24 0;
#X connect 23 1 21 0;
#X connect 24 0 21 0;
#X connect 25 0 21 0;
#X connect 26 0 24 0;
#X connect 27 0 17 0;
#X connect 28 0 29 0;
#X connect 28 1 34 0;
#X connect 29 0 30 0;
#X connect 30 0 11 0;
#X connect 31 0 32 0;
#X connect 32 0 33 0;
#X connect 32 1 30 0;
#X connect 33 0 30 0;
#X connect 34 0 30 0;
#X connect 35 0 33 0;
#X connect 39 0 37 0;
#X connect 40 0 38 0;
#X connect 41 0 42 0;
#X connect 42 0 48 0;
#X connect 43 0 46 0;
#X connect 44 0 45 0;
#X connect 45 0 49 1;
#X connect 45 0 49 0;
#X connect 47 0 42 0;
#X connect 48 0 43 0;
#X connect 48 1 43 1;
#X connect 49 0 50 0;
#X connect 50 1 43 0;
#X restore -15 539 pd create-send-message;
#X obj 134 363 f;
#X obj 95 124 t b b b;
#X obj 169 550 table state-of-pedals;
#X obj -15 470 tabread state-of-pedals;
#X obj 95 307 tabwrite state-of-pedals;
#X obj 194 -60 r current_note;
#X connect 1 0 8 0;
#X connect 1 1 12 0;
#X connect 2 0 15 0;
#X connect 3 0 15 0;
#X connect 4 0 5 0;
#X connect 5 0 1 0;
#X connect 5 1 7 0;
#X connect 6 0 9 0;
#X connect 7 0 6 1;
#X connect 7 0 11 1;
#X connect 7 1 15 1;
#X connect 8 0 2 0;
#X connect 8 1 6 0;
#X connect 9 0 14 0;
#X connect 9 1 10 1;
#X connect 11 0 10 1;
#X connect 12 0 3 0;
#X connect 12 1 10 2;
#X connect 12 2 11 0;
#X connect 14 0 10 0;
#X connect 16 0 4 0;
#X restore 22 393 pd interpretation;
#X connect 0 0 1 0;
#X connect 0 1 1 1;
#X connect 1 0 2 0;
#X connect 2 0 7 0;
#X connect 2 1 3 0;
#X connect 3 0 5 0;
#X connect 3 1 4 0;
#X connect 4 0 5 1;
#X connect 5 0 6 0;
#X restore 10 16 pd controller-input;
#N canvas 110 303 647 261 reset 0;
#X msg 11 80 const 0;
#X obj 11 171 s state-of-pedals;
#X obj 11 10 r reset;
#X obj 400 201 s pd-loops;
#X msg 420 98 clear;
#X obj 381 10 r reset;
#X obj 522 10 loadbang;
#X msg 381 155 loadbang;
#X obj 381 231 s pd-loop.pd;
#X obj 381 50 t b b b;
#X msg 168 80 const 0;
#X obj 141 10 r reset;
#X obj 168 171 s creation-or-not;
#X obj 141 40 t b b;
#X msg 141 114 1 1;
#X obj 522 60 s reset;
#X msg 400 134 obj 50 150 loop 1 \, obj 92 150 loop 2;
#X connect 0 0 1 0;
#X connect 2 0 0 0;
#X connect 4 0 3 0;
#X connect 5 0 9 0;
#X connect 6 0 15 0;
#X connect 7 0 8 0;
#X connect 9 0 7 0;
#X connect 9 1 16 0;
#X connect 9 2 4 0;
#X connect 10 0 12 0;
#X connect 11 0 13 0;
#X connect 13 0 14 0;
#X connect 13 1 10 0;
#X connect 14 0 12 0;
#X connect 16 0 3 0;
#X restore 140 76 pd reset;
#N canvas 823 498 283 170 audio-in/out 0;
#X obj 150 19 catch~ output-signal;
#X obj 150 139 dac~;
#X obj 20 19 adc~;
#X obj 20 139 s~ input-signal;
#X obj 81 69 *~ 1.3;
#X connect 0 0 1 0;
#X connect 0 0 1 1;
#X connect 2 0 3 0;
#X connect 2 0 4 0;
#X connect 2 1 3 0;
#X connect 2 1 4 0;
#X connect 4 0 1 0;
#X connect 4 0 1 1;
#X restore 10 76 pd audio-in/out;
#N canvas 463 254 322 615 grid 0;
#X obj 189 73 swap 60000;
#X obj 189 103 /;
#X floatatom 189 141 5 0 0 0 - - -;
#X floatatom 189 37 5 0 0 0 - - -;
#X obj 19 157 metro 500;
#X obj 19 417 f;
#X obj 49 417 mod 4;
#X obj 89 417 + 1;
#X floatatom 89 461 5 0 0 0 - - -;
#X obj 19 4 tgl 15 0 empty grid_on/off empty 17 7 0 10 -262144 -1 -1
1 1;
#N canvas 347 211 833 705 metronome 0;
#X obj 16 -89 inlet;
#X obj 338 132 vline~;
#X obj 343 568 dac~;
#X obj 16 -29 spigot;
#X obj 88 -46 r metronome;
#X obj 17 459 osc~;
#X obj 16 289 vline~;
#X obj 17 509 *~;
#X obj 74 493 vline~;
#X obj 17 569 dac~;
#X msg 74 378 1 1 0 \, 0 80 1;
#X obj 613 278 *~;
#X obj 675 262 vline~;
#X obj 613 328 dac~;
#X obj 613 -2 noise~;
#X obj 16 31 sel 1 3;
#X obj 311 317 bp~ 426 123;
#X obj 231 317 bp~ 359 250;
#X text 564 -77 wie klingt eigentlich holz?;
#X obj 338 162 *~;
#X obj 338 192 *~ 0.05;
#X obj 344 392 *~ 1000;
#X obj 344 452 clip~ -0.6 0.6;
#X msg 338 98 1 \, 0 10;
#X obj 391 317 bp~ 700 123;
#X obj 481 317 bp~ 3000 123;
#X obj 613 198 hip~ 5000;
#X msg 675 48 0.3 5 0 \, 0 65 5;
#X obj 343 518 *~ 0.6;
#X obj 16 329 *~;
#X msg 16 239 1 0 0 \, 0 50 0;
#X obj 16 379 *~ 40;
#X obj 16 409 +~ 80;
#X obj 339 238 hip~ 2000;
#X connect 0 0 3 0;
#X connect 1 0 19 1;
#X connect 1 0 19 0;
#X connect 3 0 15 0;
#X connect 4 0 3 1;
#X connect 5 0 7 0;
#X connect 6 0 29 1;
#X connect 6 0 29 0;
#X connect 7 0 9 0;
#X connect 7 0 9 1;
#X connect 8 0 7 1;
#X connect 10 0 8 0;
#X connect 11 0 13 0;
#X connect 11 0 13 1;
#X connect 12 0 11 1;
#X connect 14 0 26 0;
#X connect 15 0 30 0;
#X connect 15 1 23 0;
#X connect 15 2 27 0;
#X connect 16 0 21 0;
#X connect 17 0 21 0;
#X connect 19 0 20 0;
#X connect 20 0 33 0;
#X connect 21 0 22 0;
#X connect 22 0 28 0;
#X connect 23 0 1 0;
#X connect 24 0 21 0;
#X connect 25 0 21 0;
#X connect 26 0 11 0;
#X connect 27 0 12 0;
#X connect 28 0 2 0;
#X connect 28 0 2 1;
#X connect 29 0 31 0;
#X connect 30 0 6 0;
#X connect 30 0 10 0;
#X connect 31 0 32 0;
#X connect 32 0 5 0;
#X connect 33 0 16 0;
#X connect 33 0 17 0;
#X connect 33 0 24 0;
#X connect 33 0 25 0;
#X restore 196 477 pd metronome;
#X obj 89 517 sel 1;
#X obj 89 577 s grid-bang;
#X obj 19 47 t f f;
#X obj 96 64 sel 1;
#X msg 96 94 0;
#X text 223 35 bpm;
#X obj 19 237 t b b;
#X obj 144 207 swap 500;
#X obj 144 237 *;
#X obj 147 172 hsl 128 15 0.7 0.3 0 0 empty empty empty -2 -8 0 10
-262144 -1 -1 3900 1;
#X obj 76 254 del 250;
#X obj 82 23 loadbang;
#X connect 0 0 1 0;
#X connect 0 1 1 1;
#X connect 1 0 2 0;
#X connect 2 0 4 1;
#X connect 2 0 18 1;
#X connect 3 0 0 0;
#X connect 4 0 17 0;
#X connect 5 0 6 0;
#X connect 6 0 7 0;
#X connect 7 0 5 1;
#X connect 7 0 8 0;
#X connect 8 0 10 0;
#X connect 8 0 11 0;
#X connect 9 0 13 0;
#X connect 11 0 12 0;
#X connect 13 0 4 0;
#X connect 13 1 14 0;
#X connect 14 0 15 0;
#X connect 15 0 5 1;
#X connect 17 0 5 0;
#X connect 17 1 21 0;
#X connect 18 0 19 0;
#X connect 18 1 19 1;
#X connect 19 0 21 1;
#X connect 20 0 18 0;
#X connect 21 0 5 0;
#X connect 22 0 9 0;
#X restore 147 56 pd grid;
#X obj 193 56 tgl 17 0 grid_on/off hider empty 17 7 0 10 -262144 -1
-1 0 1;
#N canvas 788 510 403 418 create/erase 0;
#X msg 40 351 loadbang;
#X obj 59 237 pack;
#X obj 40 177 t b f f;
#X msg 251 298 clear;
#X msg 90 119 1 \, 2;
#X obj 90 70 r reset;
#X obj 40 30 r create-object;
#X obj 40 70 + 1;
#X msg 344 87 clear;
#X obj 59 315 s pd-loops;
#X msg 59 273 obj \$2 150 loop \$1;
#X obj 40 385 s pd-loop.pd;
#X obj 121 194 * 45;
#X connect 0 0 11 0;
#X connect 1 0 10 0;
#X connect 2 0 0 0;
#X connect 2 1 1 0;
#X connect 2 2 12 0;
#X connect 3 0 9 0;
#X connect 4 0 2 0;
#X connect 5 0 8 0;
#X connect 5 0 4 0;
#X connect 6 0 7 0;
#X connect 7 0 2 0;
#X connect 8 0 9 0;
#X connect 10 0 9 0;
#X connect 12 0 1 1;
#X restore 11 36 pd create/erase;
