#N canvas 395 331 271 410 10;
#X obj 84 147 t b b;
#X obj 111 372 outlet;
#X obj 189 58 f \$1;
#X obj 189 17 loadbang;
#X obj 24 17 inlet;
#X obj 84 104 sel 1;
#X obj 129 17 inlet;
#X obj 189 104 sel 0;
#X obj 24 47 t f f;
#X obj 18 341 spigot;
#X obj 84 284 delay 20;
#X connect 0 0 10 0;
#X connect 0 1 1 0;
#X connect 2 0 7 0;
#X connect 3 0 2 0;
#X connect 4 0 8 0;
#X connect 5 0 0 0;
#X connect 6 0 10 1;
#X connect 7 1 10 1;
#X connect 8 0 5 0;
#X connect 8 1 9 1;
#X connect 9 0 0 0;
#X connect 10 0 9 0;
