#N canvas 682 406 473 511 10;
#X obj 21 417 *~;
#X obj 21 29 inlet~;
#X obj 21 443 outlet~;
#X obj 84 419 *~;
#X obj 84 29 inlet~;
#X obj 84 445 outlet~;
#X obj 235 29 inlet;
#X obj 122 385 line~;
#X msg 123 360 \$1 20;
#X obj 235 92 * 100;
#X msg 124 208 1;
#X obj 122 335 change;
#X obj 216 174 -;
#X obj 216 199 / 100;
#X obj 216 225 - 1;
#X obj 216 250 abs;
#X floatatom 149 159 5 0 0 0 - - -;
#X obj 123 119 moses;
#X floatatom 182 125 5 0 0 0 - - -;
#X floatatom 260 122 5 0 0 0 - - -;
#X obj 123 95 env~ 64;
#N canvas 529 205 495 613 delaying 0;
#X obj 74 53 inlet~;
#X obj 250 53 inlet~;
#X obj 72 94 delwrite~ \$0-r 100;
#X obj 251 95 delwrite~ \$0-l 100;
#X obj 64 464 outlet~;
#X obj 170 274 samplerate~;
#X msg 170 306 1000 \$1;
#X obj 170 333 /;
#X msg 178 248 bang;
#X obj 170 227 loadbang;
#X obj 170 358 * 64;
#X obj 233 463 outlet~;
#X obj 234 428 delread~ \$0-l 12;
#X obj 65 429 delread~ \$0-r 12;
#X connect 0 0 2 0;
#X connect 1 0 3 0;
#X connect 5 0 6 0;
#X connect 6 0 7 0;
#X connect 7 0 10 0;
#X connect 8 0 5 0;
#X connect 9 0 5 0;
#X connect 10 0 13 0;
#X connect 10 0 12 0;
#X connect 12 0 11 0;
#X connect 13 0 4 0;
#X restore 21 93 pd delaying;
#X connect 0 0 2 0;
#X connect 1 0 20 0;
#X connect 1 0 21 0;
#X connect 3 0 5 0;
#X connect 4 0 20 0;
#X connect 4 0 21 1;
#X connect 6 0 9 0;
#X connect 7 0 3 1;
#X connect 7 0 0 1;
#X connect 8 0 7 0;
#X connect 9 0 12 1;
#X connect 9 0 17 1;
#X connect 9 0 19 0;
#X connect 10 0 11 0;
#X connect 11 0 8 0;
#X connect 12 0 13 0;
#X connect 13 0 14 0;
#X connect 14 0 15 0;
#X connect 15 0 11 0;
#X connect 17 0 10 0;
#X connect 17 1 12 0;
#X connect 17 1 16 0;
#X connect 20 0 17 0;
#X connect 20 0 18 0;
#X connect 21 0 0 0;
#X connect 21 1 3 0;
