#N canvas 842 297 730 674 10;
#X obj 13 -24 inlet~;
#X obj 339 -154 inlet;
#X obj 13 435 outlet~;
#X text 17 -132 normalize;
#X text 18 -115 MIDI sync / clock;
#X obj 362 438 outlet;
#X obj 146 -24 r \$0-record;
#X obj 65 189 r \$0-play;
#X obj 186 317 r \$0-stop;
#X obj 221 -23 r \$0-play;
#X msg 221 69 stop;
#X obj 221 4 t b b;
#X obj 146 5 t b b;
#N canvas 782 41 766 919 tables 1;
#N canvas 0 22 758 404 (subpatch) 0;
#X array \$0-phrase0 882000 float 2;
#X coords 0 1 881999 -1 200 140 1 0 0;
#X restore 115 -22 graph;
#X msg 21 0 const 0;
#X obj 21 -24 r \$0-clear;
#N canvas 0 22 450 278 (subpatch) 0;
#X array \$0-phrase1 882000 float 2;
#X coords 0 1 881999 -1 200 140 1 0 0;
#X restore 113 140 graph;
#N canvas 0 22 450 278 (subpatch) 0;
#X array \$0-phrase2 882000 float 2;
#X coords 0 1 881999 -1 200 140 1 0 0;
#X restore 112 301 graph;
#N canvas 0 22 450 278 (subpatch) 0;
#X array \$0-phrase3 882000 float 2;
#X coords 0 1 881999 -1 200 140 1 0 0;
#X restore 110 464 graph;
#N canvas 0 22 450 278 (subpatch) 0;
#X array \$0-phrase4 882000 float 2;
#X coords 0 1 881999 -1 200 140 1 0 0;
#X restore 109 627 graph;
#X obj 21 64 s;
#X obj 36 31 r \$0-phrase;
#N canvas 0 22 758 404 (subpatch) 0;
#X array \$0-phrase5 882000 float 2;
#X coords 0 1 881999 -1 200 140 1 0 0;
#X restore 333 -21 graph;
#N canvas 0 22 450 278 (subpatch) 0;
#X array \$0-phrase6 882000 float 2;
#X coords 0 1 881999 -1 200 140 1 0 0;
#X restore 331 141 graph;
#N canvas 0 22 450 278 (subpatch) 0;
#X array \$0-phrase7 882000 float 2;
#X coords 0 1 881999 -1 200 140 1 0 0;
#X restore 330 302 graph;
#N canvas 0 22 450 278 (subpatch) 0;
#X array \$0-phrase8 882000 float 2;
#X coords 0 1 881999 -1 200 140 1 0 0;
#X restore 328 465 graph;
#N canvas 0 22 450 278 (subpatch) 0;
#X array \$0-phrase9 882000 float 2;
#X coords 0 1 881999 -1 200 140 1 0 0;
#X restore 327 628 graph;
#N canvas 0 22 450 278 (subpatch) 0;
#X array \$0-phrase10 882000 float 2;
#X coords 0 1 881999 -1 200 140 1 0 0;
#X restore 547 -21 graph;
#X connect 1 0 7 0;
#X connect 2 0 1 0;
#X connect 8 0 7 1;
#X restore 340 -23 pd tables;
#N canvas 431 59 494 344 META 0;
#X text 12 5 KEYWORDS signal;
#X text 12 105 OUTLET_0 signal;
#X text 12 45 DESCRIPTION looper;
#X text 12 145 AUTHOR Tommy Neuwirth \, Max Neupert;
#X text 12 185 RELEASE_DATE 2012;
#X text 12 205 HELP_PATCH_AUTHORS Max Neupert;
#X text 12 125 LIBRARY Bauhauslib;
#X text 12 65 INLET_0 signal;
#X text 12 85 INLET_1 float \, clear \, play \, record;
#X text 12 25 LICENSE LGPL;
#X text 12 165 WEBSITE https://github.com/bauhauslib/blib;
#X restore 510 468 pd META;
#X obj 362 407 r \$0-print;
#N canvas 920 371 708 586 set-loop-size 0;
#X obj 61 225 loadbang;
#X obj 61 248 samplerate~;
#X obj 28 146 timer;
#X obj 61 271 / 1000;
#X obj 28 297 * 44.1;
#X obj 28 81 spigot 1;
#X obj 117 80 spigot 1;
#X msg 188 49 0;
#X msg 223 49 1;
#X obj 223 22 r \$0-clear;
#X obj 28 320 s \$0-samples;
#X obj 28 167 t f b f;
#X obj 67 193 s \$0-length;
#X text 175 235 set the length of the loop;
#X text 197 83 the length of the loop is defined by the first recording
after a memory clear!;
#X obj 28 22 inlet record;
#X obj 117 22 inlet play;
#X connect 0 0 1 0;
#X connect 1 0 3 0;
#X connect 2 0 11 0;
#X connect 3 0 4 1;
#X connect 4 0 10 0;
#X connect 5 0 2 0;
#X connect 6 0 2 1;
#X connect 7 0 5 1;
#X connect 7 0 6 1;
#X connect 8 0 6 1;
#X connect 8 0 5 1;
#X connect 9 0 8 0;
#X connect 11 0 4 0;
#X connect 11 1 7 0;
#X connect 11 2 12 0;
#X connect 15 0 5 0;
#X connect 16 0 6 0;
#X restore 155 41 pd set-loop-size;
#X obj 541 -35 s \$0-phrase;
#X obj 541 -80 makefilename \$0-phrase%d;
#X obj 65 130 tabwrite~ \$0-phrase0;
#X obj 65 405 tabread4~ \$0-phrase0;
#X obj 65 -24 r \$0-phrase;
#X msg 65 1 set \$1;
#X obj 65 377 vline~;
#X obj 556 -57 s \$0-print phrase;
#X msg 123 340 1;
#X obj 65 340 pack f f;
#X obj 65 316 f;
#X obj 80 274 r \$0-samples;
#X obj 231 243 r \$0-length;
#X obj 186 295 s \$0-loop;
#X obj 76 212 r \$0-loop;
#X obj 186 268 delay 10;
#X obj 65 246 t b b b;
#X obj 434 407 r \$0-loop;
#N canvas 631 35 699 364 record-on-loop-start 0;
#X obj 36 26 r \$0-loop;
#X obj 36 282 outlet;
#X obj 154 27 inlet record;
#X obj 238 28 r \$0-clear;
#X text 252 89 make sure that recording is starting at the loops begining
(only when the memory is clear start anytime).;
#X text 252 184 stop when end (length) of first recording is reached
;
#N canvas 646 459 450 300 once 0;
#X obj 29 30 inlet;
#X obj 29 115 t a b;
#X obj 29 142 outlet;
#X msg 74 63 0;
#X obj 29 85 spigot \$1;
#X obj 114 32 inlet;
#X connect 0 0 4 0;
#X connect 1 0 2 0;
#X connect 1 1 3 0;
#X connect 3 0 4 1;
#X connect 4 0 1 0;
#X connect 5 0 4 1;
#X restore 267 281 pd once 1;
#X obj 36 173 spigot 1;
#X msg 81 132 0;
#X msg 154 89 1;
#X msg 36 133 start;
#X obj 36 199 t a b;
#X obj 63 226 s \$0-reset;
#X obj 81 62 r \$0-reset;
#X msg 125 153 stop;
#X obj 126 173 spigot 0;
#X msg 171 134 1;
#X obj 36 63 t b b;
#X obj 81 86 t b b;
#X obj 126 197 t a b;
#X msg 193 173 0;
#X connect 0 0 17 0;
#X connect 2 0 9 0;
#X connect 3 0 9 0;
#X connect 7 0 11 0;
#X connect 8 0 7 1;
#X connect 9 0 7 1;
#X connect 10 0 7 0;
#X connect 11 0 1 0;
#X connect 11 1 12 0;
#X connect 13 0 18 0;
#X connect 14 0 15 0;
#X connect 15 0 19 0;
#X connect 16 0 15 1;
#X connect 17 0 10 0;
#X connect 17 1 14 0;
#X connect 18 0 8 0;
#X connect 18 1 16 0;
#X connect 19 0 1 0;
#X connect 19 1 20 0;
#X connect 20 0 15 1;
#X restore 75 69 pd record-on-loop-start;
#N canvas 1074 310 517 442 play-record 1;
#X obj 23 177 s \$0-record;
#X obj 98 177 s \$0-play;
#X obj 53 31 == 0;
#X obj 23 65 sel 0 1;
#X obj 23 31 f 0;
#X msg 61 -60 1;
#X msg 129 -60 0;
#X obj 61 -82 inlet play;
#X obj 129 -82 inlet record;
#X obj 166 176 s \$0-print;
#X msg 125 138 record;
#X msg 173 138 play;
#X msg 253 154 cleared;
#X obj 253 131 r \$0-clear;
#X msg 401 12 1;
#X msg 360 12 0;
#X obj 360 -10 delay;
#X obj 360 -35 t b f b;
#X obj 23 -61 t b;
#X obj 23 -82 inlet;
#X floatatom 87 61 5 0 0 0 - - -;
#X connect 2 0 4 1;
#X connect 3 0 0 0;
#X connect 3 0 10 0;
#X connect 3 1 1 0;
#X connect 3 1 11 0;
#X connect 4 0 2 0;
#X connect 4 0 3 0;
#X connect 4 0 20 0;
#X connect 5 0 4 0;
#X connect 6 0 4 0;
#X connect 7 0 5 0;
#X connect 8 0 6 0;
#X connect 10 0 9 0;
#X connect 11 0 9 0;
#X connect 12 0 9 0;
#X connect 13 0 12 0;
#X connect 16 0 15 0;
#X connect 17 0 16 0;
#X connect 17 1 16 1;
#X connect 17 2 14 0;
#X connect 18 0 4 0;
#X connect 19 0 18 0;
#X restore 339 -57 pd play-record;
#N canvas 292 344 822 654 stop-and-clear 0;
#X obj 32 564 outlet;
#X obj 31 52 sel 1 0;
#X obj 31 79 timer;
#X obj 32 292 route first second;
#X obj 32 247 list prepend first;
#X obj 32 270 list trim;
#X obj 31 124 moses 500;
#X text 323 53 converts sequences of 1 and 0 (pedal press and pedal
release) into the the milliseconds of the press.;
#X obj 136 166 s \$0-clear;
#X text 321 141 filter out long presses > 500 ms \, the command for
clearing the memory (long foot switch) and then deletes the memory.
;
#X text 320 411 detects the stop command (two short pedal presses in
a second) and sends the stop command;
#X obj 32 368 t f b;
#X obj 32 435 t f b;
#X obj 134 493 s \$0-switch;
#X obj 137 214 r \$0-switch;
#X msg 134 411 second;
#X msg 84 460 first;
#X msg 103 371 clear;
#X obj 32 407 pipe 500;
#X obj 84 347 t b b b;
#X obj 237 396 s \$0-stop;
#X obj 237 18 inlet stop;
#X obj 136 18 inlet clear;
#X obj 31 17 inlet float;
#X connect 1 0 2 0;
#X connect 1 1 2 1;
#X connect 2 0 6 0;
#X connect 3 0 11 0;
#X connect 3 1 19 0;
#X connect 4 0 5 0;
#X connect 5 0 3 0;
#X connect 6 0 4 0;
#X connect 6 1 8 0;
#X connect 11 0 18 0;
#X connect 11 1 15 0;
#X connect 12 0 0 0;
#X connect 12 1 16 0;
#X connect 14 0 4 1;
#X connect 15 0 13 0;
#X connect 16 0 13 0;
#X connect 17 0 18 0;
#X connect 18 0 12 0;
#X connect 19 0 16 0;
#X connect 19 1 17 0;
#X connect 19 2 20 0;
#X connect 21 0 20 0;
#X connect 22 0 8 0;
#X connect 23 0 1 0;
#X restore 339 -97 pd stop-and-clear;
#X obj 339 -130 route float clear stop play record phrase;
#X text 16 -96 overdubbing;
#X obj 197 222 r \$0-clear;
#X msg 186 244 stop;
#X obj 500 407 r \$0-stop;
#X msg 500 429 stop;
#X obj 186 201 r \$0-stop;
#X connect 0 0 2 0;
#X connect 0 0 19 0;
#X connect 1 0 38 0;
#X connect 6 0 12 0;
#X connect 7 0 33 0;
#X connect 8 0 25 0;
#X connect 9 0 11 0;
#X connect 10 0 19 0;
#X connect 11 0 10 0;
#X connect 11 1 16 1;
#X connect 12 0 35 0;
#X connect 12 1 16 0;
#X connect 15 0 5 0;
#X connect 18 0 17 0;
#X connect 18 0 24 0;
#X connect 20 0 2 0;
#X connect 21 0 22 0;
#X connect 22 0 19 0;
#X connect 23 0 20 0;
#X connect 25 0 23 0;
#X connect 26 0 23 0;
#X connect 27 0 26 0;
#X connect 28 0 27 1;
#X connect 29 0 26 1;
#X connect 29 0 32 1;
#X connect 31 0 33 0;
#X connect 32 0 30 0;
#X connect 33 0 27 0;
#X connect 33 1 25 0;
#X connect 33 2 32 0;
#X connect 34 0 5 0;
#X connect 35 0 19 0;
#X connect 37 0 36 0;
#X connect 38 0 37 0;
#X connect 38 1 37 1;
#X connect 38 2 37 2;
#X connect 38 3 36 1;
#X connect 38 4 36 2;
#X connect 38 5 18 0;
#X connect 40 0 41 0;
#X connect 41 0 32 0;
#X connect 42 0 43 0;
#X connect 43 0 5 0;
#X connect 44 0 41 0;
#X coords 0 674 1 673 250 175 0;
