#N canvas 737 73 853 635 10;
#X msg 412 179 stop;
#X obj 587 168 timer;
#X floatatom 587 252 10 0 0 0 - - -;
#X obj 471 195 t b b b;
#X obj 587 228 * 44.1;
#X obj 533 484 line~;
#X msg 533 459 \$1 \, \$2 \$3;
#X floatatom 666 255 10 0 0 0 - - -;
#X obj 533 433 pack f f f;
#X msg 533 224 0;
#X floatatom 533 252 5 0 0 0 - - -;
#X obj 448 397 metro;
#X msg 460 360 stop;
#X obj 448 418 bng 15 250 50 0 empty empty empty 17 7 0 10 -262144
-1 -1;
#X msg 416 365 bang;
#X obj 377 75 f;
#X obj 404 75 + 1;
#X obj 377 106 select 0 1;
#X obj 430 75 % 2;
#X obj 416 302 f;
#X obj 443 302 + 1;
#X obj 416 326 select 0 1;
#X obj 469 302 % 2;
#X msg 441 276 1;
#X obj 377 139 t b b b;
#X obj 315 123 inlet~;
#X obj 377 40 inlet;
#X text 297 100 audio input;
#X text 421 39 start rec / stop rec;
#X obj 339 270 inlet;
#X text 307 298 play/stop loop;
#X obj 533 544 outlet~;
#N canvas 0 22 450 300 (subpatch) 0;
#X array \$0-looper 352800 float 0;
#X coords 0 -1 1 1 200 140 1 0 0;
#X restore 33 62 graph;
#X obj 533 514 tabread4~ \$0-looper;
#X obj 377 240 tabwrite~ \$0-looper;
#X obj 33 34 cnv 15 100 25 empty empty empty 20 12 0 14 -262144 -66577
0;
#X text 120 398 normalize;
#X text 121 415 MIDI sync / clock;
#X text 120 434 overdubbing / voices;
#X connect 0 0 3 0;
#X connect 0 0 34 0;
#X connect 1 0 4 0;
#X connect 1 0 7 0;
#X connect 2 0 8 1;
#X connect 3 0 19 0;
#X connect 3 1 9 0;
#X connect 3 2 1 1;
#X connect 4 0 2 0;
#X connect 5 0 33 0;
#X connect 6 0 5 0;
#X connect 7 0 8 2;
#X connect 7 0 11 1;
#X connect 8 0 6 0;
#X connect 9 0 10 0;
#X connect 10 0 8 0;
#X connect 11 0 13 0;
#X connect 12 0 11 0;
#X connect 12 0 5 0;
#X connect 13 0 8 0;
#X connect 14 0 11 0;
#X connect 15 0 16 0;
#X connect 15 0 17 0;
#X connect 16 0 18 0;
#X connect 17 0 24 0;
#X connect 17 1 0 0;
#X connect 18 0 15 1;
#X connect 19 0 20 0;
#X connect 19 0 21 0;
#X connect 20 0 22 0;
#X connect 21 0 14 0;
#X connect 21 1 12 0;
#X connect 22 0 19 1;
#X connect 23 0 19 0;
#X connect 24 0 34 0;
#X connect 24 1 1 0;
#X connect 24 2 23 0;
#X connect 25 0 34 0;
#X connect 26 0 15 0;
#X connect 29 0 19 0;
#X connect 33 0 31 0;
#X coords 0 -1 1 1 250 175 1 30 30;
