#N canvas -865 164 701 597 10;
#X obj 27 507 dac~;
#X obj 27 473 *~;
#X obj 42 451 line~;
#X obj 45 411 hsl 128 15 0 1 0 0 empty empty empty -2 -8 0 10 -262144
-1 -1 0 1;
#X text 137 21 LOOPER;
#X msg 42 430 \$1 20;
#X obj 120 131 tgl 15 0 empty empty empty 17 7 0 10 -262144 -1 -1 0
1;
#X msg 131 154 clear;
#X msg 156 200 play;
#X msg 142 177 record;
#X obj 66 381 bng 15 250 50 0 empty empty empty 17 7 0 10 -262144 -1
-1;
#X text 87 381 bang on loop;
#X msg 177 268 phrase \$1;
#X obj 177 247 hradio 15 1 0 11 empty empty empty 0 -8 0 10 -262144
-1 -1 0;
#X obj 27 28 bng 15 250 50 0 empty empty empty 17 7 0 10 -262144 -1
-1;
#X obj 27 46 openpanel;
#X msg 27 67 open \$1;
#X msg 90 68 play;
#X obj 27 91 tapedeck~;
#N canvas 66 497 450 300 MIDI 0;
#X obj 130 167 outlet;
#X obj 130 63 notein 1;
#X obj 175 90 moses 1;
#X msg 217 115 1;
#X connect 1 1 2 0;
#X connect 2 0 0 0;
#X connect 2 1 3 0;
#X connect 3 0 0 0;
#X restore 120 110 pd MIDI;
#X obj 27 537 pddp/pddplink http://www.ehow.com/how_6808682_use-boss-rc_2-loop-station.html
;
#X msg 167 224 stop;
#X text 142 129 long= clear \, short (< 500ms)= toggle record/play
\, twice=stop;
#X obj 173 381 print;
#X msg 234 69 noise \$1;
#X obj 237 47 hsl 128 15 0 1 0 0 empty empty empty -2 -8 0 10 -262144
-1 -1 0 1;
#X msg 177 305 level \$1;
#X obj 180 288 hsl 128 15 0 1 0 0 empty empty empty -2 -8 0 10 -262144
-1 -1 0 1;
#X obj 27 346 looper_RC-2~;
#X connect 1 0 0 0;
#X connect 1 0 0 1;
#X connect 2 0 1 1;
#X connect 3 0 5 0;
#X connect 5 0 2 0;
#X connect 6 0 28 1;
#X connect 7 0 28 1;
#X connect 8 0 28 1;
#X connect 9 0 28 1;
#X connect 12 0 28 1;
#X connect 13 0 12 0;
#X connect 14 0 15 0;
#X connect 15 0 16 0;
#X connect 16 0 18 0;
#X connect 17 0 18 0;
#X connect 18 0 28 0;
#X connect 19 0 6 0;
#X connect 21 0 28 1;
#X connect 24 0 18 0;
#X connect 25 0 24 0;
#X connect 26 0 28 1;
#X connect 27 0 26 0;
#X connect 28 0 1 0;
#X connect 28 1 10 0;
#X connect 28 1 23 0;
