#N canvas 0 0 263 271 10;
#N canvas 499 40 369 476 changepitch 1;
#X obj 105 -14 openpanel;
#X obj 105 40 soundfile_info;
#X obj 105 411 dac~;
#X obj 105 -41 r open;
#X obj 105 67 unpack f s f;
#X obj 295 -41 table array;
#X msg 159 121 read -maxsize \$2 -resize \$1 array;
#X obj 159 94 pack s f;
#X obj 159 148 soundfiler;
#X obj 159 175 f;
#X obj 105 212 /;
#X obj 105 346 *~;
#X msg 105 13 read \$1;
#X obj 105 309 phasor~;
#X obj 105 373 tabread4~ array;
#X obj 105 267 *;
#X obj 1 132 r pitch;
#X obj 1 159 mtof;
#X obj 1 185 autoscale 0.5 2;
#X obj 1 212 t b f;
#X connect 0 0 12 0;
#X connect 1 0 4 0;
#X connect 3 0 0 0;
#X connect 4 0 10 0;
#X connect 4 1 7 0;
#X connect 4 2 7 1;
#X connect 6 0 8 0;
#X connect 7 0 6 0;
#X connect 8 0 9 0;
#X connect 9 0 10 1;
#X connect 9 0 11 1;
#X connect 10 0 15 0;
#X connect 11 0 14 0;
#X connect 12 0 1 0;
#X connect 13 0 11 0;
#X connect 14 0 2 0;
#X connect 14 0 2 1;
#X connect 15 0 13 0;
#X connect 16 0 17 0;
#X connect 17 0 18 0;
#X connect 18 0 19 0;
#X connect 19 0 15 0;
#X connect 19 1 15 1;
#X restore -7 -1 pd changepitch;
#X obj 5 96 bng 50 250 50 0 open empty empty 17 7 0 10 -262144 -1 -1
;
#X text -13 149 OPEN SOUNDFILE;
#X obj 91 55 vsl 50 128 48 72 0 1 pitch empty empty 0 -9 0 10 -262144
-1 -1 6350 0;
#X text 140 105 _;
#X text 140 169 _;
#X text 149 173 -12;
#X text 158 110 0;
#X text 140 42 _;
#X text 98 192 PITCH;
#X text 149 46 +12;
#X msg 91 26 60;
#X obj 91 -1 loadbang;
#X connect 11 0 3 0;
#X connect 12 0 11 0;
