#N canvas -761 157 732 586 10;
#X declare -lib Gem;
#X obj 136 24 inlet;
#X obj 136 515 outlet;
#X obj 327 22 declare -lib Gem;
#X obj 131 432 glsl_program;
#X obj 204 347 pack 0 0;
#X obj 225 327 t b f;
#X obj 221 282 change;
#X obj 203 163 change;
#X msg 204 373 link \$1 \$2;
#X floatatom 225 308 2 0 0 0 ID - -;
#X floatatom 203 186 2 0 0 0 ID - -;
#X obj 222 394 print linking;
#X obj 131 144 glsl_vertex;
#X obj 131 262 glsl_fragment;
#X obj 336 80 bng 15 250 50 0 empty empty empty 0 -6 0 8 -262144 -1
-1;
#X text 368 78 <-load an other shader;
#X text 372 92 (using rectangular texturing);
#X msg 336 121 1;
#X text 455 305 <- adjust Brightness;
#X obj 336 142 s rectangle;
#X msg 87 230 print;
#X msg 87 106 print;
#X msg 84 398 print;
#X floatatom 200 463 0 0 0 0 - - -;
#X msg 145 122 open bitcrusher.vert;
#X msg 151 233 open bitcrusher.frag;
#X obj 409 220 inlet;
#X msg 422 362 gamma \$1;
#X obj 492 251 route color gamma;
#X msg 407 324 threshold \$1;
#X connect 0 0 12 0;
#X connect 3 0 1 0;
#X connect 3 1 23 0;
#X connect 4 0 8 0;
#X connect 5 0 4 0;
#X connect 5 1 4 1;
#X connect 6 0 9 0;
#X connect 7 0 10 0;
#X connect 8 0 3 0;
#X connect 8 0 11 0;
#X connect 9 0 5 0;
#X connect 10 0 4 0;
#X connect 12 0 13 0;
#X connect 12 1 7 0;
#X connect 13 0 3 0;
#X connect 13 1 6 0;
#X connect 14 0 24 0;
#X connect 14 0 25 0;
#X connect 14 0 17 0;
#X connect 17 0 19 0;
#X connect 20 0 13 0;
#X connect 21 0 12 0;
#X connect 22 0 3 0;
#X connect 24 0 12 0;
#X connect 25 0 13 0;
#X connect 26 0 29 0;
#X connect 27 0 3 0;
#X connect 28 0 29 0;
#X connect 28 1 27 0;
#X connect 29 0 3 0;
