#N canvas 996 265 732 586 10;
#X declare -lib Gem;
#X obj 29 27 inlet;
#X obj 29 518 outlet;
#X obj 282 25 declare -lib Gem;
#X obj 29 435 glsl_program;
#X obj 102 350 pack 0 0;
#X obj 123 330 t b f;
#X obj 119 285 change;
#X obj 101 166 change;
#X msg 102 376 link \$1 \$2;
#X floatatom 123 311 2 0 0 0 ID - -;
#X floatatom 101 189 2 0 0 0 ID - -;
#X obj 120 397 print linking;
#X obj 29 147 glsl_vertex;
#X obj 29 265 glsl_fragment;
#X obj 219 70 bng 15 250 50 0 empty empty empty 0 -6 0 8 -262144 -1
-1;
#X msg 205 117 1;
#X obj 205 138 s rectangle;
#X floatatom 98 466 0 0 0 0 - - -;
#X obj 360 366 inlet;
#X text 108 533 Shaders inspired by: http://001.vade.info/?page_id=20
;
#X obj 205 49 loadbang;
#X obj 205 92 t b;
#X msg 43 125 open pix_bitcrusher.vert;
#X msg 49 236 open pix_bitcrusher.frag;
#X connect 0 0 12 0;
#X connect 3 0 1 0;
#X connect 3 1 17 0;
#X connect 4 0 8 0;
#X connect 5 0 4 0;
#X connect 5 1 4 1;
#X connect 6 0 9 0;
#X connect 7 0 10 0;
#X connect 8 0 3 0;
#X connect 8 0 11 0;
#X connect 9 0 5 0;
#X connect 10 0 4 0;
#X connect 12 0 13 0;
#X connect 12 1 7 0;
#X connect 13 0 3 0;
#X connect 13 1 6 0;
#X connect 14 0 21 0;
#X connect 15 0 16 0;
#X connect 18 0 3 0;
#X connect 20 0 21 0;
#X connect 21 0 15 0;
#X connect 21 0 22 0;
#X connect 21 0 23 0;
#X connect 22 0 12 0;
#X connect 23 0 13 0;
