#N canvas 825 374 640 562 10;
#X declare -lib Gem;
#X declare -lib Gem;
#X obj 192 27 declare -lib Gem;
#X obj 62 87 pix_video;
#X obj 62 58 gemhead;
#X obj 62 216 pix_bitcrusher;
#X obj 62 254 pix_texture;
#X obj 62 286 rectangle 4 3;
#X obj 281 125 gemwin;
#X msg 281 76 create \, 1;
#X msg 301 100 0 \, destroy;
#X floatatom 143 170 5 0 0 0 - - -;
#X msg 143 190 levels \$1;
#X obj 146 151 hsl 200 15 0 100 0 0 empty empty empty -2 -8 0 10 -262144
-1 -1 1500 1;
#X connect 1 0 3 0;
#X connect 2 0 1 0;
#X connect 3 0 4 0;
#X connect 4 0 5 0;
#X connect 7 0 6 0;
#X connect 8 0 6 0;
#X connect 9 0 10 0;
#X connect 10 0 3 1;
#X connect 11 0 9 0;
