#N canvas 772 627 571 638 10;
#X obj -392 36 adc~;
#X obj -391 258 tabwrite~ \$0-buffer;
#X obj -25 602 table \$0-buffer 22050;
#X obj -328 183 metro 500;
#X obj -327 142 tgl 15 0 empty empty empty 17 7 0 10 -262144 -1 -1
1 1;
#X obj -388 478 tabread~ \$0-buffer;
#X obj -388 388 phasor~ -2;
#X obj -388 428 *~ 22050;
#X obj -387 603 dac~;
#X obj -387 543 *~;
#X obj -282 528 hsl 128 15 0 1 0 0 empty empty empty -2 -8 0 10 -262144
-1 -1 4100 1;
#X obj -327 36 loadbang;
#X msg -13 467 \; \$2-buffer resize \$1;
#X obj -13 428 pack f \$0;
#X obj -163 411 /;
#X obj -277 116 swap 1000;
#X obj -277 146 /;
#X obj -163 361 swap 44100;
#X obj -106 318 samplerate~;
#X obj -106 278 loadbang;
#X obj -277 66 r \$0-buffersize;
#X obj -163 251 r \$0-buffersize;
#X obj -110 96 s \$0-buffersize;
#X obj -388 318 r \$0-buffersize;
#X obj -388 352 * -1;
#X msg -70 36 0.5;
#X msg -40 36 1;
#X msg -10 36 2;
#X msg 20 36 3;
#X msg 50 36 4;
#X msg -110 36 0.25;
#X connect 0 0 1 0;
#X connect 0 1 1 0;
#X connect 3 0 1 0;
#X connect 4 0 3 0;
#X connect 5 0 9 0;
#X connect 6 0 7 0;
#X connect 7 0 5 0;
#X connect 9 0 8 0;
#X connect 9 0 8 1;
#X connect 10 0 9 1;
#X connect 11 0 4 0;
#X connect 13 0 12 0;
#X connect 14 0 13 0;
#X connect 14 0 7 1;
#X connect 15 0 16 0;
#X connect 15 1 16 1;
#X connect 16 0 3 1;
#X connect 17 0 14 0;
#X connect 17 1 14 1;
#X connect 18 0 17 1;
#X connect 19 0 18 0;
#X connect 20 0 15 0;
#X connect 21 0 17 0;
#X connect 23 0 24 0;
#X connect 24 0 6 0;
#X connect 25 0 22 0;
#X connect 26 0 22 0;
#X connect 27 0 22 0;
#X connect 28 0 22 0;
#X connect 29 0 22 0;
#X connect 30 0 22 0;
