#N canvas 291 225 617 758 10;
#X obj 262 493 *~;
#X obj 300 150 sel 0;
#X msg 300 217 1;
#X obj 389 337 f;
#X msg 389 217 bang;
#X obj 389 281 del;
#N canvas 103 252 447 453 knee 0;
#X obj 7 12 inlet;
#X obj 7 279 outlet;
#X obj 161 12 inlet;
#X obj 7 185 pack;
#X obj 28 39 r release;
#X obj 161 185 pack;
#X obj 182 39 r attack;
#X msg 161 212 \$1 \$2;
#X msg 7 212 \$1 \$2;
#X obj 28 131 * 0;
#X obj 28 158 f;
#X obj 182 131 * 0;
#X msg 224 94 1;
#X msg 254 94 0.5;
#X msg 284 94 0;
#X obj 182 158 f;
#X obj 224 69 bng 15 250 50 0 empty soft empty 17 7 0 10 -262144 -1
-1;
#X obj 254 69 bng 15 250 50 0 empty middle empty 17 7 0 10 -262144
-1 -1;
#X obj 284 69 bng 15 250 50 0 empty hard empty 17 7 0 10 -262144 -1
-1;
#X msg 70 94 1;
#X msg 100 94 0.5;
#X msg 130 94 0;
#X obj 70 69 bng 15 250 50 0 empty soft empty 17 7 0 10 -262144 -1
-1;
#X obj 100 69 bng 15 250 50 0 empty middle empty 17 7 0 10 -262144
-1 -1;
#X obj 130 69 bng 15 250 50 0 empty hard empty 17 7 0 10 -262144 -1
-1;
#X connect 0 0 3 0;
#X connect 2 0 5 0;
#X connect 3 0 8 0;
#X connect 4 0 9 0;
#X connect 5 0 7 0;
#X connect 6 0 11 0;
#X connect 7 0 1 0;
#X connect 8 0 1 0;
#X connect 9 0 10 0;
#X connect 10 0 3 1;
#X connect 11 0 15 0;
#X connect 12 0 11 1;
#X connect 13 0 11 1;
#X connect 14 0 11 1;
#X connect 15 0 5 1;
#X connect 16 0 12 0;
#X connect 17 0 13 0;
#X connect 18 0 14 0;
#X connect 19 0 9 1;
#X connect 20 0 9 1;
#X connect 21 0 9 1;
#X connect 22 0 19 0;
#X connect 23 0 20 0;
#X connect 24 0 21 0;
#X restore 300 394 pd knee;
#X obj 300 421 line~;
#X obj 300 16 - 100;
#X obj 300 -11 env~ 32;
#X obj 300 281 pipe;
#X obj 300 123 change;
#X obj 300 453 *~;
#X obj 300 96 >;
#X obj 261 -77 inlet~;
#X obj 262 535 outlet;
#X obj 390 -74 inlet;
#X obj 390 -39 route input threshold attack release ratio;
#X connect 0 0 15 0;
#X connect 1 0 2 0;
#X connect 1 1 4 0;
#X connect 2 0 10 0;
#X connect 3 0 6 1;
#X connect 4 0 5 0;
#X connect 5 0 3 0;
#X connect 6 0 7 0;
#X connect 7 0 12 0;
#X connect 7 0 12 1;
#X connect 8 0 13 0;
#X connect 9 0 8 0;
#X connect 10 0 6 0;
#X connect 11 0 1 0;
#X connect 12 0 0 1;
#X connect 13 0 11 0;
#X connect 14 0 0 0;
#X connect 14 0 9 0;
#X connect 16 0 17 0;
#X connect 17 1 13 1;
#X connect 17 2 5 1;
#X connect 17 3 10 1;
#X connect 17 4 3 1;
#X coords 0 -1 1 1 85 60 2 100 100;
