#N canvas 167 419 303 425 10;
#X obj 23 6 inlet~;
#X obj 23 309 *~;
#X obj 143 6 inlet;
#X obj 23 389 outlet~;
#X obj 143 69 t f f;
#X obj 170 219 pack f \$1;
#X msg 170 256 \$1 \$2;
#X obj 221 46 \$1;
#X obj 221 6 loadbang;
#X obj 221 83 sel 0;
#X msg 221 119 20;
#X obj 143 106 == 1;
#X obj 143 136 pipe \$1;
#X obj 143 166 switch~;
#X obj 170 293 vline~;
#X connect 0 0 1 0;
#X connect 1 0 3 0;
#X connect 2 0 4 0;
#X connect 4 0 11 0;
#X connect 4 1 5 0;
#X connect 5 0 6 0;
#X connect 6 0 14 0;
#X connect 7 0 9 0;
#X connect 8 0 7 0;
#X connect 9 0 10 0;
#X connect 9 1 5 1;
#X connect 9 1 12 1;
#X connect 10 0 5 1;
#X connect 10 0 12 1;
#X connect 11 0 12 0;
#X connect 12 0 13 0;
#X connect 14 0 1 1;
