#N canvas 244 504 348 362 10;
#X obj 101 101 cnv 15 39 203 empty empty empty 20 12 0 14 -1 -262144
0;
#X obj 102 102 cnv 15 35 200 empty empty empty 20 12 0 14 -191407 -66577
0;
#X obj 103 104 cnv 15 33 23 empty \$0-gui_number a1 7 12 0 14 -33289
-262144 0;
#N canvas 522 476 240 229 index 0;
#X obj 17 172 s \$0-gui_number;
#X msg 17 134 label a\$1;
#X msg 110 134 label_pos \$1 12;
#X obj 110 32 > 9;
#X obj 110 62 sel 1;
#X msg 110 95 3;
#X msg 137 95 7;
#X obj 17 15 \$1;
#X obj 17 -20 loadbang;
#X connect 1 0 0 0;
#X connect 2 0 0 0;
#X connect 3 0 4 0;
#X connect 4 0 5 0;
#X connect 4 1 6 0;
#X connect 5 0 2 0;
#X connect 6 0 2 0;
#X connect 7 0 3 0;
#X connect 7 0 1 0;
#X connect 8 0 7 0;
#X restore 267 86 pd index;
#N canvas 7 313 1235 614 monitor 0;
#X obj 41 256 s \$0-gui_monitor;
#X obj 41 103 bng 15 250 50 0 empty empty empty 17 7 0 10 -262144 -1
-1;
#X obj 451 256 s \$0-gui_monitor;
#X msg 721 186 color \$1 \$2 \$3;
#X obj 451 103 bng 15 250 50 0 empty empty empty 17 7 0 10 -262144
-1 -1;
#X obj 861 256 s \$0-gui_monitor;
#X obj 861 103 bng 15 250 50 0 empty empty empty 17 7 0 10 -262144
-1 -1;
#X msg 861 186 label [_];
#X msg 1022 186 label_font 0 14;
#X msg 1131 186 color 1 0 -1;
#X msg 41 186 label [_];
#X msg 921 186 label_pos 0 15;
#X msg 202 186 label_font 0 14;
#X msg 101 186 label_pos 1 13;
#X msg 612 186 label_font 0 14;
#X msg 321 186 color 16 0 26;
#X msg 511 186 label_pos 1 13;
#X msg 721 146 13 0 2;
#X msg 451 186 label [_];
#X obj 41 41 sel 1;
#X obj 451 12 r record;
#X obj 451 42 sel \$1;
#X obj 41 11 r play/stop_\$1;
#X obj 451 556 s \$0-gui_monitor;
#X msg 721 486 color \$1 \$2 \$3;
#X obj 451 403 bng 15 250 50 0 empty empty empty 17 7 0 10 -262144
-1 -1;
#X msg 721 446 13 0 2;
#X obj 451 342 sel \$1;
#X obj 451 312 r clear;
#X msg 451 486 label X;
#X msg 612 486 label_font 0 30;
#X msg 511 486 label_pos 3 14;
#X obj 504 388 del 500;
#X connect 1 0 13 0;
#X connect 1 0 12 0;
#X connect 1 0 10 0;
#X connect 1 0 15 0;
#X connect 3 0 2 0;
#X connect 4 0 17 0;
#X connect 4 0 16 0;
#X connect 4 0 14 0;
#X connect 4 0 18 0;
#X connect 6 0 11 0;
#X connect 6 0 8 0;
#X connect 6 0 9 0;
#X connect 6 0 7 0;
#X connect 7 0 5 0;
#X connect 8 0 5 0;
#X connect 9 0 5 0;
#X connect 10 0 0 0;
#X connect 11 0 5 0;
#X connect 12 0 0 0;
#X connect 13 0 0 0;
#X connect 14 0 2 0;
#X connect 15 0 0 0;
#X connect 16 0 2 0;
#X connect 17 0 3 0;
#X connect 18 0 2 0;
#X connect 19 0 1 0;
#X connect 19 1 6 0;
#X connect 20 0 21 0;
#X connect 21 0 4 0;
#X connect 22 0 19 0;
#X connect 24 0 23 0;
#X connect 25 0 26 0;
#X connect 25 0 31 0;
#X connect 25 0 30 0;
#X connect 25 0 29 0;
#X connect 26 0 24 0;
#X connect 27 0 25 0;
#X connect 27 0 32 0;
#X connect 28 0 27 0;
#X connect 29 0 23 0;
#X connect 30 0 23 0;
#X connect 31 0 23 0;
#X connect 32 0 6 0;
#X restore 257 108 pd monitor;
#X obj 105 132 cnv 15 28 29 empty empty empty 20 12 0 14 -1 -66577
0;
#X obj 105 134 cnv 15 25 26 empty \$0-gui_monitor [_] 1 13 0 14 -24198
-42246 0;
#X obj 107 167 cnv 15 24 134 empty empty empty 20 12 0 14 -1 -66577
0;
#X obj 122 170 vsl 8 128 0 100 0 0 \$0-lvl_s empty empty 0 -9 0 10
-1 -262144 -1 7311 1;
#X obj 107 170 vsl 15 128 0 1 0 0 empty volume_\$1 empty 0 -9 0 10
-262144 -1 -1 12501 1;
#X obj 201 151 r lvl_\$1;
#X connect 10 0 8 0;
#X coords 0 -1 1 1 41 205 2 100 100;
