#N canvas 742 205 648 604 10;
#N canvas 0 22 450 300 (subpatch) 0;
#X array \$0-soundfile 193798 float 2;
#X coords 0 1 193798 -1 200 140 1;
#X restore 309 92 graph;
#X obj 309 388 soundfiler;
#X floatatom 322 517 20 0 0 0 - - -;
#X floatatom 336 490 20 0 0 0 - - -;
#X obj 336 440 / 48;
#X obj 309 412 t f f;
#X msg 47 224 1 \, 193798 4037.46 \;;
#X obj 47 275 vline~;
#X obj 47 335 tabread4~ \$0-soundfile;
#X msg 309 365 read -resize \$1 \$2;
#X obj 309 301 t a b;
#X obj 309 342 pack s s;
#X obj 354 321 symbol \$0-soundfile;
#X obj 311 540 s \$0-samples;
#X obj 347 465 s \$0-miliseconds;
#X text 308 61 An array holds the sample:;
#N canvas 195 129 450 300 preset 0;
#X obj 35 167 outlet;
#X obj 35 70 pack f f;
#X obj 35 93 trigger list bang bang;
#X msg 164 130 set 1;
#X msg 99 130 addcomma;
#X obj 80 45 r \$0-miliseconds;
#X obj 35 20 r \$0-samples;
#X msg 35 129 add \$1 \$2;
#X connect 1 0 2 0;
#X connect 2 0 7 0;
#X connect 2 1 4 0;
#X connect 2 2 3 0;
#X connect 3 0 0 0;
#X connect 4 0 0 0;
#X connect 5 0 1 1;
#X connect 6 0 1 0;
#X connect 7 0 0 0;
#X restore 59 193 pd preset;
#X text 350 421 samplingrate of 48 kHz is assumed here;
#X obj 47 81 inlet;
#X obj 47 103 route play stop open;
#X msg 86 127 1;
#X obj 47 371 outlet~;
#X obj 309 272 symbol \$1;
#X obj 309 247 loadbang;
#X connect 1 0 5 0;
#X connect 4 0 3 0;
#X connect 4 0 14 0;
#X connect 5 0 13 0;
#X connect 5 0 2 0;
#X connect 5 1 4 0;
#X connect 6 0 7 0;
#X connect 7 0 8 0;
#X connect 8 0 21 0;
#X connect 9 0 1 0;
#X connect 10 0 11 0;
#X connect 10 1 12 0;
#X connect 11 0 9 0;
#X connect 12 0 11 1;
#X connect 16 0 6 0;
#X connect 18 0 19 0;
#X connect 19 0 6 0;
#X connect 19 1 20 0;
#X connect 19 2 10 0;
#X connect 20 0 7 0;
#X connect 22 0 10 0;
#X connect 23 0 22 0;
