#N canvas 567 238 927 620 10;
#N canvas 0 22 450 300 (subpatch) 0;
#X array \$0-side-AR 337938 float 2;
#X coords 0 1 337938 -1 200 140 1 0 0;
#X restore 443 91 graph;
#X msg 18 224 1 \, 337938 7662.99 \;;
#X obj 18 275 vline~;
#N canvas 195 129 450 300 preset 0;
#X obj 35 167 outlet;
#X obj 35 70 pack f f;
#X obj 35 93 trigger list bang bang;
#X msg 164 130 set 1;
#X msg 99 130 addcomma;
#X obj 80 45 r \$0-miliseconds;
#X obj 35 20 r \$0-samples;
#X msg 35 129 add \$1 \$2;
#X connect 1 0 2 0;
#X connect 2 0 7 0;
#X connect 2 1 4 0;
#X connect 2 2 3 0;
#X connect 3 0 0 0;
#X connect 4 0 0 0;
#X connect 5 0 1 1;
#X connect 6 0 1 0;
#X connect 7 0 0 0;
#X restore 30 193 pd preset;
#X obj 17 81 inlet;
#X msg 48 127 1;
#X obj 18 489 outlet~;
#N canvas 0 22 450 300 (subpatch) 0;
#X array \$0-side-BR 321922 float 2;
#X coords 0 1 321922 -1 200 140 1 0 0;
#X restore 661 90 graph;
#X msg 134 302 set \$1;
#X text 707 485 todo: side B;
#N canvas 506 494 558 400 flutter 0;
#X obj 48 15 inlet~;
#X obj 48 348 outlet~;
#X obj 141 181 / 2;
#X obj 59 73 inlet flutter;
#X obj 114 160 t f f;
#X obj 48 244 osc~ 5;
#X obj 48 268 *~ 0;
#X obj 48 296 +~ 0;
#X obj 114 121 clip 0 1;
#X obj 59 97 route speed depth;
#X obj 59 121 clip 0 1;
#X obj 114 140 * 6;
#X obj 59 143 * 6;
#X obj -113 14 inlet~;
#X obj -113 347 outlet~;
#X obj -113 243 osc~ 5;
#X obj -113 267 *~ 0;
#X obj -113 295 +~ 0;
#X obj -113 46 delwrite~ \$0-flutterR 500;
#X obj -113 320 vd~ \$0-flutterR;
#X obj 48 47 delwrite~ \$0-flutterL 500;
#X obj 48 321 vd~ \$0-flutterL;
#X connect 0 0 20 0;
#X connect 2 0 7 1;
#X connect 2 0 17 1;
#X connect 3 0 9 0;
#X connect 4 0 6 1;
#X connect 4 0 16 1;
#X connect 4 1 2 0;
#X connect 5 0 6 0;
#X connect 6 0 7 0;
#X connect 7 0 21 0;
#X connect 8 0 11 0;
#X connect 9 0 10 0;
#X connect 9 1 8 0;
#X connect 10 0 12 0;
#X connect 11 0 4 0;
#X connect 12 0 5 0;
#X connect 12 0 15 0;
#X connect 13 0 18 0;
#X connect 15 0 16 0;
#X connect 16 0 17 0;
#X connect 17 0 19 0;
#X connect 19 0 14 0;
#X connect 21 0 1 0;
#X restore 18 388 pd flutter;
#N canvas 969 543 744 449 type 0;
#X obj 24 25 inlet~;
#X obj 24 225 outlet~;
#X obj 263 11 inlet;
#X text 25 287 Normal tapes usually have the thickest sound of analog
with great extended bass \, and in some cases rolled off highs. Chrome
tapes have a extended high end \, but the bass can be weak compared
to normal tapes. Metal tapes someone said (may) have the same bass
type of normal tapes \, but the high end is the best and most extended.
;
#X text 24 271 from a forum post:;
#X obj 58 140 lop~;
#X obj 24 140 *~;
#X msg 253 99 550;
#X obj 58 179 *~;
#X obj 96 179 *~;
#X msg 244 85 0.5;
#X msg 258 135 0.5;
#X msg 263 157 0;
#X obj 263 31 symbol;
#X msg 305 107 550;
#X msg 305 80 0.5;
#X msg 315 155 0.5;
#X msg 310 133 0;
#X obj 95 141 hip~;
#X obj 263 52 select normal chrome metal;
#X msg 367 113 0;
#X msg 372 135 0;
#X msg 362 87 1;
#X text 25 372 http://www.audiokarma.org/forums/archive/index.php/t-112298.html
;
#X obj 132 22 inlet~;
#X obj 132 222 outlet~;
#X obj 166 137 lop~;
#X obj 132 137 *~;
#X obj 166 176 *~;
#X obj 204 176 *~;
#X obj 203 138 hip~;
#X connect 0 0 5 0;
#X connect 0 0 6 0;
#X connect 0 0 18 0;
#X connect 2 0 13 0;
#X connect 5 0 8 0;
#X connect 6 0 1 0;
#X connect 7 0 5 1;
#X connect 8 0 1 0;
#X connect 9 0 1 0;
#X connect 10 0 6 1;
#X connect 11 0 8 1;
#X connect 12 0 9 1;
#X connect 13 0 19 0;
#X connect 14 0 18 1;
#X connect 15 0 6 1;
#X connect 16 0 9 1;
#X connect 17 0 8 1;
#X connect 18 0 9 0;
#X connect 19 0 10 0;
#X connect 19 0 7 0;
#X connect 19 0 11 0;
#X connect 19 0 12 0;
#X connect 19 1 15 0;
#X connect 19 1 14 0;
#X connect 19 1 17 0;
#X connect 19 1 16 0;
#X connect 19 2 22 0;
#X connect 19 2 20 0;
#X connect 19 2 21 0;
#X connect 20 0 8 1;
#X connect 21 0 9 1;
#X connect 22 0 6 1;
#X connect 24 0 26 0;
#X connect 24 0 27 0;
#X connect 24 0 30 0;
#X connect 26 0 28 0;
#X connect 27 0 25 0;
#X connect 28 0 25 0;
#X connect 29 0 25 0;
#X connect 30 0 29 0;
#X restore 18 421 pd type;
#N canvas 302 450 450 300 noise 0;
#X obj 31 42 inlet~;
#X obj 31 210 outlet~;
#X obj 133 170 *~;
#X obj 133 43 noise~;
#X obj 200 92 line~;
#X msg 200 67 \$1 20;
#X obj 200 0 inlet;
#X obj 31 170 *~;
#X obj 200 21 clip 0 1;
#X obj 96 145 abs~;
#X obj 96 124 -~ 1;
#X obj 133 81 hip~ 800;
#X obj 200 44 / 25;
#X obj 81 41 inlet~;
#X obj 81 209 outlet~;
#X obj 81 169 *~;
#X connect 0 0 7 0;
#X connect 2 0 1 0;
#X connect 2 0 14 0;
#X connect 3 0 11 0;
#X connect 4 0 2 1;
#X connect 4 0 10 0;
#X connect 5 0 4 0;
#X connect 6 0 8 0;
#X connect 7 0 1 0;
#X connect 8 0 12 0;
#X connect 9 0 7 1;
#X connect 9 0 15 1;
#X connect 10 0 9 0;
#X connect 11 0 2 0;
#X connect 12 0 5 0;
#X connect 13 0 15 0;
#X connect 15 0 14 0;
#X restore 18 458 pd noise;
#X obj 17 103 route play stop pause ff rw;
#X obj 176 216 route open side autoreverse;
#X obj 283 334 route flutter type noise;
#N canvas 350 184 721 625 loading 0;
#X obj 22 20 inlet;
#X obj 22 217 soundfiler;
#X obj 22 241 t f f;
#X msg 22 194 read -resize \$1 \$2;
#X obj 22 106 t a b;
#X obj 22 171 pack s s;
#X obj 22 357 s \$0-samples;
#X obj 49 335 s \$0-miliseconds;
#X obj 80 76 symbol \$1;
#X obj 80 51 loadbang;
#X obj 65 124 symbol \$0-side-A;
#X obj 82 145 symbol \$0-side-B;
#X obj 49 310 / 44.1;
#X obj 82 243 loadbang;
#X obj 82 266 samplerate~;
#X obj 82 287 / 1000;
#X connect 0 0 4 0;
#X connect 1 0 2 0;
#X connect 2 0 6 0;
#X connect 2 1 12 0;
#X connect 3 0 1 0;
#X connect 4 0 5 0;
#X connect 4 1 10 0;
#X connect 5 0 3 0;
#X connect 8 0 4 0;
#X connect 9 0 8 0;
#X connect 10 0 5 1;
#X connect 11 0 5 1;
#X connect 12 0 7 0;
#X connect 13 0 14 0;
#X connect 14 0 15 0;
#X connect 15 0 12 1;
#X restore 176 264 pd loading;
#N canvas 431 59 494 344 META 0;
#X text 12 105 OUTLET_0 signal;
#X text 12 185 RELEASE_DATE 2012;
#X text 12 205 HELP_PATCH_AUTHORS Max Neupert;
#X text 12 125 LIBRARY Bauhauslib;
#X text 12 25 LICENSE LGPL;
#X text 12 5 KEYWORDS signal tapedeck tape flutter;
#X text 12 45 DESCRIPTION a casette tapedeck;
#X text 12 65 INLET_0 open \, stop \, play \, flutter speed \, flutter
depth \, noise;
#X text 12 145 AUTHOR Max Neupert;
#X text 12 165 WEBSITE https://github.com/bauhauslib/blib;
#X restore 566 478 pd META;
#N canvas 0 22 450 300 (subpatch) 0;
#X array \$0-side-AL 337938 float 2;
#X coords 0 1 337938 -1 200 140 1 0 0;
#X restore 445 262 graph;
#N canvas 0 22 450 300 (subpatch) 0;
#X array \$0-side-BL 321922 float 2;
#X coords 0 1 321922 -1 200 140 1 0 0;
#X restore 663 261 graph;
#X obj 18 335 tabread4~ \$0-side-AR;
#X obj 67 489 outlet~;
#X obj 146 335 tabread4~ \$0-side-AL;
#X connect 1 0 2 0;
#X connect 2 0 20 0;
#X connect 2 0 22 0;
#X connect 3 0 1 0;
#X connect 4 0 13 0;
#X connect 5 0 2 0;
#X connect 8 0 20 1;
#X connect 8 0 22 1;
#X connect 10 0 11 0;
#X connect 10 1 11 1;
#X connect 11 0 12 0;
#X connect 11 1 12 1;
#X connect 12 0 6 0;
#X connect 12 1 21 0;
#X connect 13 0 1 0;
#X connect 13 1 5 0;
#X connect 13 5 14 0;
#X connect 14 0 16 0;
#X connect 14 3 15 0;
#X connect 15 0 10 2;
#X connect 15 1 11 2;
#X connect 15 2 12 2;
#X connect 20 0 10 0;
#X connect 22 0 10 1;
