#N canvas 692 75 707 670 10;
#X obj 78 441 tapedeck~;
#X msg 90 98 open \$1;
#X obj 90 78 openpanel;
#X obj 90 60 bng 15 250 50 0 empty empty empty 17 7 0 10 -262144 -1
-1;
#X obj 78 595 dac~;
#X msg 116 149 stop;
#X msg 102 124 play;
#X msg 347 94 pause;
#X msg 355 125 ff;
#X msg 362 151 rw;
#X obj 124 250 tgl 15 0 empty empty empty 17 7 0 10 -262144 -1 -1 0
1;
#X msg 124 269 autoreverse \$1;
#X obj 133 333 hsl 99 15 0 1 0 0 empty empty empty -2 -8 0 10 -262144
-1 -1 4900 1;
#X msg 130 351 flutter speed \$1;
#X msg 238 351 flutter depth \$1;
#X obj 241 333 hsl 99 15 0 1 0 0 empty empty empty -2 -8 0 10 -262144
-1 -1 8700 1;
#X msg 237 400 noise \$1;
#X obj 240 381 hsl 99 15 0 1 0 0 empty empty empty -2 -8 0 10 -262144
-1 -1 6300 1;
#X msg 387 365 metal;
#X obj 144 526 line~;
#X obj 147 474 hsl 128 15 0 1 0 0 empty empty empty -2 -8 0 10 -262144
-1 -1 4700 1;
#X msg 144 498 \$1 20;
#X text 248 39 to implement later: pause rewind \, fast forward \,
side B and autoreverse (maybe even later: speed dubbing :);
#X msg 373 341 chrome;
#X msg 364 314 normal;
#X msg 364 411 type \$1;
#X obj 364 390 symbol;
#X text 418 314 more bass;
#X text 426 341 more high;
#X text 433 365 untouched;
#X msg 78 39 open dataflow_loop.wav;
#X msg 128 180 side A;
#X msg 138 204 side B;
#X obj 114 226 t a;
#X obj 129 555 *~;
#X obj 78 554 *~;
#X connect 0 0 35 0;
#X connect 0 1 34 0;
#X connect 1 0 0 0;
#X connect 2 0 1 0;
#X connect 3 0 2 0;
#X connect 5 0 0 0;
#X connect 6 0 0 0;
#X connect 10 0 11 0;
#X connect 11 0 0 0;
#X connect 12 0 13 0;
#X connect 13 0 0 0;
#X connect 14 0 0 0;
#X connect 15 0 14 0;
#X connect 16 0 0 0;
#X connect 17 0 16 0;
#X connect 18 0 26 0;
#X connect 19 0 34 1;
#X connect 19 0 35 1;
#X connect 20 0 21 0;
#X connect 21 0 19 0;
#X connect 23 0 26 0;
#X connect 24 0 26 0;
#X connect 25 0 0 0;
#X connect 26 0 25 0;
#X connect 30 0 0 0;
#X connect 31 0 33 0;
#X connect 32 0 33 0;
#X connect 33 0 0 0;
#X connect 34 0 4 1;
#X connect 35 0 4 0;
