#N canvas 735 225 846 621 10;
#N canvas 0 22 450 300 (subpatch) 0;
#X array \$0-side-A 265866 float 2;
#X coords 0 1 265866 -1 200 140 1 0 0;
#X restore 397 91 graph;
#X msg 47 224 1 \, 265866 6028.71 \;;
#X obj 47 275 vline~;
#X text 396 60 An array holds the sample:;
#N canvas 195 129 450 300 preset 0;
#X obj 35 167 outlet;
#X obj 35 70 pack f f;
#X obj 35 93 trigger list bang bang;
#X msg 164 130 set 1;
#X msg 99 130 addcomma;
#X obj 80 45 r \$0-miliseconds;
#X obj 35 20 r \$0-samples;
#X msg 35 129 add \$1 \$2;
#X connect 1 0 2 0;
#X connect 2 0 7 0;
#X connect 2 1 4 0;
#X connect 2 2 3 0;
#X connect 3 0 0 0;
#X connect 4 0 0 0;
#X connect 5 0 1 1;
#X connect 6 0 1 0;
#X connect 7 0 0 0;
#X restore 59 193 pd preset;
#X obj 46 81 inlet;
#X msg 77 127 1;
#X obj 47 477 outlet~;
#N canvas 0 22 450 300 (subpatch) 0;
#X array \$0-side-B 321922 float 2;
#X coords 0 1 321922 -1 200 140 1 0 0;
#X restore 615 90 graph;
#X obj 47 335 tabread4~ \$0-side-A;
#X msg 158 310 set \$1;
#X text 655 325 todo: side B;
#N canvas 248 652 450 300 flutter 0;
#X obj 38 211 vd~ \$0-flutter;
#X obj 38 75 delwrite~ \$0-flutter 500;
#X obj 38 43 inlet~;
#X obj 38 238 outlet~;
#X obj 287 143 / 2;
#X obj 205 35 inlet flutter;
#X obj 260 122 t f f;
#X obj 38 134 osc~ 5;
#X obj 38 158 *~ 0;
#X obj 38 186 +~ 0;
#X obj 260 83 clip 0 1;
#X obj 205 59 route speed depth;
#X obj 205 83 clip 0 1;
#X obj 205 105 * 10;
#X obj 260 102 * 10;
#X connect 0 0 3 0;
#X connect 2 0 1 0;
#X connect 4 0 9 1;
#X connect 5 0 11 0;
#X connect 6 0 8 1;
#X connect 6 1 4 0;
#X connect 7 0 8 0;
#X connect 8 0 9 0;
#X connect 9 0 0 0;
#X connect 10 0 14 0;
#X connect 11 0 12 0;
#X connect 11 1 10 0;
#X connect 12 0 13 0;
#X connect 13 0 7 0;
#X connect 14 0 6 0;
#X restore 47 376 pd flutter;
#N canvas 401 416 450 300 type 0;
#X obj 24 25 inlet~;
#X obj 24 225 outlet~;
#X text 60 192 here should go a chrome metal normal switch;
#X obj 165 22 inlet;
#X obj 165 45 sel metal chrome normal;
#X connect 0 0 1 0;
#X connect 3 0 4 0;
#X restore 47 409 pd type;
#N canvas 302 450 450 300 noise 0;
#X obj 31 42 inlet~;
#X obj 31 210 outlet~;
#X obj 79 170 *~;
#X obj 79 43 noise~;
#X obj 146 92 line~;
#X msg 146 67 \$1 20;
#X obj 146 0 inlet;
#X obj 31 170 *~;
#X obj 146 21 clip 0 1;
#X obj 146 138 abs~;
#X obj 146 117 -~ 1;
#X obj 79 81 hip~ 800;
#X obj 146 44 / 25;
#X connect 0 0 7 0;
#X connect 2 0 1 0;
#X connect 3 0 11 0;
#X connect 4 0 2 1;
#X connect 4 0 10 0;
#X connect 5 0 4 0;
#X connect 6 0 8 0;
#X connect 7 0 1 0;
#X connect 8 0 12 0;
#X connect 9 0 7 1;
#X connect 10 0 9 0;
#X connect 11 0 2 0;
#X connect 12 0 5 0;
#X restore 47 446 pd noise;
#X obj 46 103 route play stop pause ff rw;
#X obj 205 216 route open side autoreverse;
#X obj 185 352 route flutter type noise;
#N canvas 0 22 721 625 loading 0;
#X obj 46 30 inlet;
#X obj 46 227 soundfiler;
#X obj 46 251 t f f;
#X msg 46 204 read -resize \$1 \$2;
#X obj 46 116 t a b;
#X obj 46 181 pack s s;
#X obj 48 379 s \$0-samples;
#X obj 73 304 s \$0-miliseconds;
#X obj 104 86 symbol \$1;
#X obj 104 61 loadbang;
#X obj 89 134 symbol \$0-side-A;
#X obj 106 155 symbol \$0-side-B;
#X obj 73 279 / 44.1;
#X obj 189 207 loadbang;
#X obj 189 230 samplerate~;
#X obj 189 251 / 1000;
#X connect 0 0 4 0;
#X connect 1 0 2 0;
#X connect 2 0 6 0;
#X connect 2 1 12 0;
#X connect 3 0 1 0;
#X connect 4 0 5 0;
#X connect 4 1 10 0;
#X connect 5 0 3 0;
#X connect 8 0 4 0;
#X connect 9 0 8 0;
#X connect 10 0 5 1;
#X connect 11 0 5 1;
#X connect 12 0 7 0;
#X connect 13 0 14 0;
#X connect 14 0 15 0;
#X connect 15 0 12 1;
#X restore 205 264 pd loading;
#X connect 1 0 2 0;
#X connect 2 0 9 0;
#X connect 4 0 1 0;
#X connect 5 0 15 0;
#X connect 6 0 2 0;
#X connect 9 0 12 0;
#X connect 10 0 9 1;
#X connect 12 0 13 0;
#X connect 13 0 14 0;
#X connect 14 0 7 0;
#X connect 15 0 1 0;
#X connect 15 1 6 0;
#X connect 15 5 16 0;
#X connect 16 0 18 0;
#X connect 16 3 17 0;
#X connect 17 0 12 1;
#X connect 17 1 13 1;
#X connect 17 2 14 1;
