#N canvas 651 257 846 621 10;
#N canvas 0 22 450 300 (subpatch) 0;
#X array \$0-side-A 168153 float 2;
#X coords 0 1 168153 -1 200 140 1 0 0;
#X restore 372 92 graph;
#X obj 372 412 soundfiler;
#X floatatom 385 541 20 0 0 0 - - -;
#X floatatom 399 514 20 0 0 0 - - -;
#X obj 372 436 t f f;
#X msg 47 224 1 \, 0 0 \;;
#X obj 47 275 vline~;
#X msg 372 389 read -resize \$1 \$2;
#X obj 372 301 t a b;
#X obj 372 366 pack s s;
#X obj 374 564 s \$0-samples;
#X obj 410 489 s \$0-miliseconds;
#X text 371 61 An array holds the sample:;
#N canvas 195 129 450 300 preset 0;
#X obj 35 167 outlet;
#X obj 35 70 pack f f;
#X obj 35 93 trigger list bang bang;
#X msg 164 130 set 1;
#X msg 99 130 addcomma;
#X obj 80 45 r \$0-miliseconds;
#X obj 35 20 r \$0-samples;
#X msg 35 129 add \$1 \$2;
#X connect 1 0 2 0;
#X connect 2 0 7 0;
#X connect 2 1 4 0;
#X connect 2 2 3 0;
#X connect 3 0 0 0;
#X connect 4 0 0 0;
#X connect 5 0 1 1;
#X connect 6 0 1 0;
#X connect 7 0 0 0;
#X restore 59 193 pd preset;
#X obj 47 81 inlet;
#X msg 82 127 1;
#X obj 47 371 outlet~;
#X obj 372 272 symbol \$1;
#X obj 372 247 loadbang;
#N canvas 0 22 450 300 (subpatch) 0;
#X array \$0-side-B 321922 float 2;
#X coords 0 1 321922 -1 200 140 1 0 0;
#X restore 590 91 graph;
#X obj 415 319 symbol \$0-side-A;
#X obj 432 340 symbol \$0-side-B;
#X obj 47 335 tabread4~ \$0-side-A;
#X msg 158 310 set \$1;
#X text 630 326 todo: side B;
#X obj 46 103 route play stop pause ff rw open side autoreverse;
#X obj 399 464 / 44.1;
#X obj 515 392 loadbang;
#X obj 515 415 samplerate~;
#X obj 515 436 / 1000;
#X connect 1 0 4 0;
#X connect 4 0 10 0;
#X connect 4 0 2 0;
#X connect 4 1 26 0;
#X connect 5 0 6 0;
#X connect 6 0 22 0;
#X connect 7 0 1 0;
#X connect 8 0 9 0;
#X connect 8 1 20 0;
#X connect 9 0 7 0;
#X connect 13 0 5 0;
#X connect 14 0 25 0;
#X connect 15 0 6 0;
#X connect 17 0 8 0;
#X connect 18 0 17 0;
#X connect 20 0 9 1;
#X connect 21 0 9 1;
#X connect 22 0 16 0;
#X connect 23 0 22 1;
#X connect 25 0 5 0;
#X connect 25 1 15 0;
#X connect 25 5 8 0;
#X connect 26 0 3 0;
#X connect 26 0 11 0;
#X connect 27 0 28 0;
#X connect 28 0 29 0;
#X connect 29 0 26 1;
