#N canvas -516 283 492 382 10;
#X obj 65 133 osc~;
#X obj 65 158 *~;
#X obj 65 186 +~;
#X obj 35 237 vcf~ 20;
#X obj 35 310 outlet~;
#X obj 86 310 outlet~;
#X obj 34 49 inlet~;
#X obj 90 48 inlet;
#X obj 90 78 route speed depth offset q;
#X connect 0 0 1 0;
#X connect 1 0 2 0;
#X connect 2 0 3 1;
#X connect 3 0 4 0;
#X connect 3 1 5 0;
#X connect 6 0 3 0;
#X connect 7 0 8 0;
#X connect 8 0 0 0;
#X connect 8 1 1 1;
#X connect 8 2 2 1;
#X connect 8 3 3 2;
