#N canvas 94 481 221 325 10;
#X obj 25 53 unpack f f f;
#X floatatom 94 122 5 0 0 0 - - -;
#X floatatom 25 95 5 0 0 0 - - -;
#X obj 25 200 *~;
#X obj 25 140 osc~;
#X obj 25 245 *~;
#X obj 25 290 throw~ as_oscs;
#X obj 25 12 r as-band_\$1;
#X obj 90 229 r~ as-osc_line;
#X connect 0 0 2 0;
#X connect 0 2 1 0;
#X connect 1 0 3 1;
#X connect 2 0 4 0;
#X connect 3 0 5 0;
#X connect 4 0 3 0;
#X connect 5 0 6 0;
#X connect 7 0 0 0;
#X connect 8 0 5 1;
